<svg width="581" height="2655" viewBox="0 0 581 2655" fill="none" xmlns="http://www.w3.org/2000/svg">
<path d="M0.746094 290.038C0.746094 129.855 130.584 0 290.746 0C450.908 0 580.746 129.855 580.746 290.038" fill="#F15D2C"/>
<path d="M269 2655V575.957H313V2655" fill="url(#paint0_linear_454_7546)"/>
<g opacity="0.8">
<mask id="mask0_454_7546" style="mask-type:luminance" maskUnits="userSpaceOnUse" x="268" y="579" width="45" height="104">
<path d="M268.317 579.235H312.26V682.562C312.26 682.562 312.316 615.552 268.317 598.299V579.235Z" fill="white"/>
</mask>
<g mask="url(#mask0_454_7546)">
<path d="M312.305 579.235H268.317V682.562H312.305V579.235Z" fill="url(#paint1_linear_454_7546)"/>
</g>
</g>
<path d="M580.746 290.041C580.746 450.223 450.908 580.078 290.746 580.078C130.584 580.078 0.746094 450.223 0.746094 290.041" fill="#F15D2C"/>
<path d="M290.746 544.735C222.724 544.735 158.764 518.242 110.663 470.135C62.5622 422.028 36.0728 358.07 36.0728 290.028C36.0728 221.986 62.5622 158.04 110.663 109.933C158.764 61.8259 222.713 35.333 290.746 35.333C358.779 35.333 422.728 61.8259 470.817 109.933C518.918 158.04 545.408 221.997 545.408 290.028C545.408 358.059 518.918 422.028 470.817 470.135C422.717 518.242 358.768 544.735 290.746 544.735Z" fill="#FF8EC9"/>
<path d="M28.6982 290.043C28.6982 145.302 146.023 27.9614 290.745 27.9614C435.467 27.9614 552.792 145.302 552.792 290.043C552.792 434.784 435.467 552.124 290.745 552.124C146.023 552.124 28.6982 434.784 28.6982 290.043Z" stroke="#FF8EC9" stroke-width="2.8765" stroke-miterlimit="10"/>
<path d="M154.987 240.032C154.965 240.97 155.072 241.738 155.307 242.336C155.541 242.912 155.861 243.37 156.267 243.712C156.693 244.053 157.184 244.288 157.739 244.416C158.315 244.522 158.933 244.576 159.595 244.576C160.171 244.576 160.736 244.501 161.291 244.352C161.845 244.202 162.347 243.968 162.795 243.648C163.243 243.328 163.595 242.933 163.851 242.464C164.128 241.973 164.267 241.397 164.267 240.736C164.267 240.096 164.149 239.562 163.915 239.136C163.68 238.709 163.307 238.336 162.795 238.016C162.304 237.696 161.675 237.397 160.907 237.12C160.16 236.821 159.264 236.48 158.219 236.096C157.429 235.84 156.651 235.541 155.883 235.2C155.115 234.858 154.421 234.432 153.803 233.92C153.205 233.408 152.715 232.789 152.331 232.064C151.968 231.317 151.787 230.41 151.787 229.344C151.787 228.256 152.011 227.285 152.459 226.432C152.928 225.578 153.536 224.864 154.283 224.288C155.029 223.69 155.872 223.242 156.811 222.944C157.749 222.645 158.688 222.496 159.627 222.496C160.651 222.496 161.536 222.592 162.283 222.784C163.029 222.954 163.776 223.242 164.523 223.648C165.419 224.117 166.144 224.8 166.699 225.696C167.253 226.592 167.541 227.744 167.563 229.152H163.851C163.808 228.448 163.669 227.861 163.435 227.392C163.2 226.922 162.891 226.56 162.507 226.304C162.144 226.026 161.728 225.834 161.259 225.728C160.789 225.621 160.299 225.568 159.787 225.568C158.549 225.568 157.525 225.877 156.715 226.496C155.904 227.114 155.499 227.946 155.499 228.992C155.499 229.738 155.637 230.346 155.915 230.816C156.213 231.285 156.619 231.69 157.131 232.032C157.664 232.373 158.293 232.672 159.019 232.928C159.744 233.184 160.555 233.472 161.451 233.792C162.283 234.09 163.083 234.41 163.851 234.752C164.64 235.072 165.333 235.477 165.931 235.968C166.549 236.458 167.04 237.066 167.403 237.792C167.787 238.517 167.979 239.424 167.979 240.512C167.979 241.728 167.755 242.816 167.307 243.776C166.859 244.714 166.229 245.461 165.419 246.016C164.501 246.698 163.563 247.136 162.603 247.328C161.664 247.541 160.565 247.648 159.307 247.648C156.789 247.648 154.805 246.997 153.355 245.696C151.925 244.373 151.2 242.485 151.179 240.032H154.987ZM175.261 244.832C176.072 244.832 176.755 244.682 177.309 244.384C178.12 243.893 178.643 243.21 178.877 242.336C179.133 241.482 179.261 240.501 179.261 239.392C178.813 239.392 178.205 239.392 177.437 239.392C176.691 239.37 175.955 239.445 175.229 239.616C174.525 239.786 173.907 240.085 173.373 240.512C172.861 240.938 172.605 241.589 172.605 242.464C172.605 243.402 172.819 244.032 173.245 244.352C173.693 244.672 174.365 244.832 175.261 244.832ZM182.557 244.384C182.557 244.746 182.568 245.173 182.589 245.664C182.632 246.154 182.707 246.677 182.813 247.232H179.325L179.293 245.632C179.165 245.866 178.963 246.101 178.685 246.336C178.429 246.592 178.109 246.826 177.725 247.04C177.341 247.253 176.904 247.424 176.413 247.552C175.944 247.68 175.443 247.744 174.909 247.744C172.84 247.744 171.325 247.285 170.365 246.368C169.405 245.45 168.925 244.128 168.925 242.4C168.925 241.226 169.245 240.202 169.885 239.328C170.525 238.432 171.368 237.77 172.413 237.344C172.989 237.088 173.597 236.906 174.237 236.8C174.877 236.672 175.507 236.586 176.125 236.544C176.744 236.501 177.32 236.49 177.853 236.512C178.387 236.512 178.824 236.512 179.165 236.512V235.776C179.08 234.602 178.792 233.824 178.301 233.44C177.811 233.034 177.075 232.832 176.093 232.832C175.667 232.832 175.283 232.874 174.941 232.96C174.621 233.024 174.333 233.162 174.077 233.376C173.843 233.568 173.651 233.856 173.501 234.24C173.352 234.602 173.245 235.082 173.181 235.68H169.469C169.512 234.656 169.736 233.792 170.141 233.088C170.547 232.362 171.059 231.765 171.677 231.296C172.296 230.826 172.989 230.485 173.757 230.272C174.547 230.058 175.347 229.952 176.157 229.952C177.117 229.952 177.992 230.08 178.781 230.336C179.571 230.57 180.243 230.944 180.797 231.456C181.373 231.946 181.811 232.565 182.109 233.312C182.429 234.037 182.579 234.89 182.557 235.872V244.384ZM208.889 247.232H205.401V237.088C205.401 236.298 205.348 235.637 205.241 235.104C205.156 234.549 204.996 234.101 204.761 233.76C204.548 233.418 204.249 233.184 203.865 233.056C203.481 232.906 203.012 232.832 202.457 232.832C201.668 232.832 200.932 233.13 200.249 233.728C199.588 234.325 199.172 235.285 199.001 236.608V247.232H195.641V237.088C195.641 235.509 195.417 234.41 194.969 233.792C194.542 233.152 193.774 232.832 192.665 232.832C192.217 232.832 191.78 232.928 191.353 233.12C190.948 233.312 190.574 233.61 190.233 234.016C189.892 234.421 189.614 234.944 189.401 235.584C189.209 236.202 189.113 236.949 189.113 237.824V247.232H185.721V230.464H189.177V231.936C190.116 230.613 191.534 229.952 193.433 229.952C194.585 229.952 195.545 230.197 196.313 230.688C197.081 231.178 197.657 231.882 198.041 232.8C198.596 231.882 199.321 231.178 200.217 230.688C201.113 230.197 202.137 229.952 203.289 229.952C205.166 229.952 206.564 230.506 207.481 231.616C208.42 232.725 208.889 234.282 208.889 236.288V247.232ZM215.629 241.824C215.672 242.464 215.778 242.986 215.949 243.392C216.141 243.776 216.386 244.074 216.685 244.288C217.005 244.501 217.357 244.65 217.741 244.736C218.146 244.8 218.573 244.832 219.021 244.832C219.469 244.832 219.896 244.789 220.301 244.704C220.706 244.618 221.058 244.48 221.357 244.288C221.656 244.096 221.89 243.85 222.061 243.552C222.232 243.232 222.317 242.837 222.317 242.368C222.317 241.877 222.21 241.493 221.997 241.216C221.784 240.938 221.485 240.714 221.101 240.544C220.717 240.373 220.258 240.234 219.725 240.128C219.192 240 218.616 239.85 217.997 239.68C217.378 239.53 216.749 239.36 216.109 239.168C215.469 238.976 214.882 238.72 214.349 238.4C213.816 238.058 213.378 237.621 213.037 237.088C212.717 236.554 212.557 235.861 212.557 235.008C212.557 234.069 212.749 233.28 213.133 232.64C213.538 232 214.05 231.477 214.669 231.072C215.309 230.666 216.002 230.378 216.749 230.208C217.517 230.037 218.264 229.952 218.989 229.952C219.778 229.952 220.546 230.026 221.293 230.176C222.04 230.325 222.712 230.602 223.309 231.008C223.906 231.392 224.408 231.936 224.813 232.64C225.218 233.322 225.474 234.208 225.581 235.296H221.869C221.549 233.653 220.546 232.832 218.861 232.832C218.093 232.832 217.453 232.97 216.941 233.248C216.429 233.504 216.173 233.994 216.173 234.72C216.173 235.189 216.301 235.541 216.557 235.776C216.813 235.989 217.208 236.181 217.741 236.352C218.274 236.522 218.946 236.714 219.757 236.928C220.568 237.12 221.517 237.418 222.605 237.824C223.842 238.229 224.717 238.784 225.229 239.488C225.762 240.192 226.029 241.024 226.029 241.984C226.029 242.986 225.816 243.85 225.389 244.576C224.984 245.28 224.44 245.866 223.757 246.336C223.074 246.826 222.285 247.178 221.389 247.392C220.514 247.626 219.608 247.744 218.669 247.744C217.944 247.744 217.197 247.648 216.429 247.456C215.661 247.264 214.946 246.933 214.285 246.464C213.645 246.016 213.101 245.418 212.653 244.672C212.226 243.904 211.981 242.954 211.917 241.824H215.629ZM242.216 247.232H238.792L238.856 245.728C238.43 246.282 237.843 246.752 237.096 247.136C236.35 247.541 235.422 247.744 234.312 247.744C232.371 247.744 230.91 247.189 229.928 246.08C228.968 244.97 228.488 243.413 228.488 241.408V230.464H232.04V240.608C232.04 241.397 232.094 242.069 232.2 242.624C232.307 243.157 232.478 243.594 232.712 243.936C232.947 244.256 233.267 244.49 233.672 244.64C234.078 244.789 234.568 244.864 235.144 244.864C235.592 244.864 236.04 244.768 236.488 244.576C236.936 244.384 237.331 244.085 237.672 243.68C238.035 243.274 238.323 242.762 238.536 242.144C238.75 241.504 238.856 240.746 238.856 239.872V230.464H242.216V247.232ZM259.193 247.232H255.641V237.088C255.641 236.298 255.588 235.637 255.481 235.104C255.375 234.549 255.204 234.112 254.969 233.792C254.735 233.45 254.415 233.205 254.009 233.056C253.604 232.906 253.113 232.832 252.537 232.832C252.089 232.832 251.641 232.928 251.193 233.12C250.767 233.312 250.372 233.61 250.009 234.016C249.668 234.421 249.391 234.944 249.177 235.584C248.964 236.202 248.857 236.949 248.857 237.824V247.232H245.465V230.464H248.921V231.936C249.924 230.613 251.417 229.952 253.401 229.952C255.343 229.952 256.793 230.506 257.753 231.616C258.713 232.725 259.193 234.282 259.193 236.288V247.232ZM270.954 244.48C271.743 244.032 272.319 243.349 272.682 242.432C273.045 241.514 273.226 240.448 273.226 239.232C273.226 238.336 273.151 237.504 273.002 236.736C272.853 235.946 272.607 235.274 272.266 234.72C271.925 234.165 271.477 233.728 270.922 233.408C270.367 233.088 269.685 232.928 268.874 232.928C268.127 232.928 267.509 233.12 267.018 233.504C266.527 233.866 266.133 234.346 265.834 234.944C265.557 235.52 265.354 236.181 265.226 236.928C265.119 237.674 265.066 238.41 265.066 239.136C265.066 239.925 265.13 240.672 265.258 241.376C265.407 242.058 265.631 242.666 265.93 243.2C266.25 243.712 266.655 244.128 267.146 244.448C267.658 244.746 268.277 244.896 269.002 244.896C269.77 244.896 270.421 244.757 270.954 244.48ZM276.522 246.624C276.522 248.757 275.871 250.421 274.57 251.616C273.269 252.832 271.455 253.44 269.13 253.44C268.149 253.44 267.242 253.333 266.41 253.12C265.578 252.928 264.842 252.608 264.202 252.16C263.562 251.733 263.039 251.178 262.634 250.496C262.229 249.813 261.962 248.981 261.834 248H265.642C265.663 248.533 265.781 248.97 265.994 249.312C266.229 249.653 266.506 249.92 266.826 250.112C267.167 250.304 267.541 250.432 267.946 250.496C268.373 250.581 268.799 250.624 269.226 250.624C270.57 250.624 271.562 250.282 272.202 249.6C272.842 248.938 273.162 247.808 273.162 246.208V245.696C272.757 246.25 272.159 246.741 271.37 247.168C270.581 247.594 269.674 247.808 268.65 247.808C267.327 247.808 266.197 247.552 265.258 247.04C264.341 246.549 263.594 245.888 263.018 245.056C262.442 244.224 262.015 243.285 261.738 242.24C261.482 241.173 261.354 240.085 261.354 238.976C261.354 237.824 261.493 236.714 261.77 235.648C262.047 234.56 262.485 233.6 263.082 232.768C263.679 231.936 264.437 231.274 265.354 230.784C266.293 230.272 267.402 230.016 268.682 230.016C270.709 230.016 272.181 230.634 273.098 231.872L273.066 230.528H276.522V246.624ZM303.452 247.168H289.212C288.871 247.168 288.636 247.104 288.508 246.976C288.401 246.869 288.348 246.645 288.348 246.304V223.84C288.348 223.498 288.401 223.274 288.508 223.168C288.636 223.04 288.871 222.976 289.212 222.976H302.94V226.016H291.932V233.184H302.876V236.224H291.932V244.128H303.452V247.168ZM309.704 247.168H306.216V222.656H309.704V247.168ZM322.857 236.992C322.772 235.776 322.398 234.784 321.737 234.016C321.076 233.226 320.073 232.832 318.729 232.832C318.089 232.832 317.524 232.949 317.033 233.184C316.564 233.418 316.158 233.728 315.817 234.112C315.476 234.496 315.209 234.944 315.017 235.456C314.846 235.946 314.74 236.458 314.697 236.992H322.857ZM326.537 241.056C325.94 243.424 324.958 245.13 323.593 246.176C322.249 247.221 320.542 247.744 318.473 247.744C317.193 247.744 316.073 247.488 315.113 246.976C314.153 246.485 313.364 245.824 312.745 244.992C312.126 244.16 311.657 243.21 311.337 242.144C311.038 241.077 310.889 239.978 310.889 238.848C310.889 237.717 311.049 236.618 311.369 235.552C311.689 234.485 312.169 233.536 312.809 232.704C313.47 231.872 314.281 231.21 315.241 230.72C316.222 230.208 317.353 229.952 318.633 229.952C319.998 229.952 321.182 230.186 322.185 230.656C323.188 231.125 324.009 231.765 324.649 232.576C325.289 233.386 325.758 234.346 326.057 235.456C326.377 236.544 326.537 237.706 326.537 238.944C326.537 239.541 326.281 239.84 325.769 239.84H314.601C314.601 240.522 314.686 241.173 314.857 241.792C315.028 242.389 315.284 242.912 315.625 243.36C315.988 243.808 316.446 244.17 317.001 244.448C317.556 244.704 318.228 244.832 319.017 244.832C320.873 244.832 322.121 243.573 322.761 241.056H326.537ZM342.458 241.056C342.138 243.296 341.327 244.97 340.026 246.08C338.724 247.189 337.146 247.744 335.29 247.744C334.01 247.744 332.89 247.488 331.93 246.976C330.991 246.485 330.202 245.824 329.562 244.992C328.943 244.16 328.474 243.21 328.154 242.144C327.855 241.077 327.706 239.978 327.706 238.848C327.706 237.717 327.866 236.618 328.186 235.552C328.527 234.485 329.028 233.536 329.69 232.704C330.351 231.872 331.162 231.21 332.122 230.72C333.082 230.208 334.202 229.952 335.482 229.952C336.378 229.952 337.231 230.101 338.042 230.4C338.852 230.677 339.567 231.104 340.186 231.68C340.826 232.234 341.338 232.928 341.722 233.76C342.106 234.57 342.33 235.498 342.394 236.544H338.682C338.596 235.136 338.266 234.165 337.69 233.632C337.135 233.098 336.314 232.832 335.226 232.832C334.65 232.832 334.127 232.981 333.658 233.28C333.188 233.557 332.783 233.962 332.442 234.496C332.122 235.029 331.866 235.669 331.674 236.416C331.503 237.141 331.418 237.952 331.418 238.848C331.418 239.722 331.503 240.533 331.674 241.28C331.866 242.005 332.122 242.634 332.442 243.168C332.783 243.701 333.178 244.117 333.626 244.416C334.095 244.693 334.618 244.832 335.194 244.832C336.218 244.832 337.018 244.565 337.594 244.032C338.17 243.477 338.532 242.485 338.682 241.056H342.458ZM352.565 247.264C352.203 247.413 351.765 247.52 351.253 247.584C350.741 247.669 350.304 247.712 349.941 247.712C349.323 247.712 348.736 247.637 348.181 247.488C347.648 247.36 347.168 247.125 346.741 246.784C346.336 246.464 346.016 246.037 345.781 245.504C345.547 244.949 345.429 244.256 345.429 243.424V233.28H342.325V230.368H345.429V225.792H348.853V230.368H352.373V233.28H348.853V242.752C348.853 243.648 348.96 244.224 349.173 244.48C349.408 244.736 349.781 244.864 350.293 244.864C350.592 244.864 350.933 244.842 351.317 244.8C351.723 244.757 352.139 244.618 352.565 244.384V247.264ZM357.487 247.232H353.999V230.464H357.551L357.487 232.256C357.679 232 357.893 231.744 358.127 231.488C358.362 231.21 358.618 230.965 358.895 230.752C359.194 230.517 359.514 230.325 359.855 230.176C360.218 230.026 360.623 229.952 361.071 229.952C361.37 229.952 361.69 229.973 362.031 230.016C362.394 230.037 362.767 230.122 363.151 230.272V233.696C362.725 233.504 362.351 233.386 362.031 233.344C361.733 233.28 361.455 233.248 361.199 233.248C360.709 233.248 360.239 233.322 359.791 233.472C359.365 233.621 358.97 233.877 358.607 234.24C358.266 234.602 357.989 235.082 357.775 235.68C357.583 236.256 357.487 236.981 357.487 237.856V247.232ZM371.746 244.32C372.556 243.765 373.154 243.008 373.538 242.048C373.943 241.066 374.146 240 374.146 238.848C374.146 238.122 374.06 237.408 373.89 236.704C373.719 235.978 373.452 235.328 373.09 234.752C372.748 234.176 372.3 233.717 371.746 233.376C371.191 233.013 370.53 232.832 369.762 232.832C368.994 232.832 368.332 233.013 367.778 233.376C367.223 233.717 366.764 234.176 366.402 234.752C366.06 235.328 365.804 235.978 365.634 236.704C365.463 237.408 365.378 238.122 365.378 238.848C365.378 239.594 365.463 240.33 365.634 241.056C365.804 241.76 366.06 242.389 366.402 242.944C366.764 243.498 367.223 243.957 367.778 244.32C368.332 244.661 368.994 244.832 369.762 244.832C370.551 244.832 371.212 244.661 371.746 244.32ZM375.842 244.96C375.18 245.792 374.338 246.464 373.314 246.976C372.311 247.488 371.127 247.744 369.762 247.744C368.375 247.744 367.17 247.488 366.146 246.976C365.143 246.464 364.311 245.792 363.65 244.96C363.01 244.106 362.53 243.146 362.21 242.08C361.89 241.013 361.73 239.936 361.73 238.848C361.73 237.76 361.89 236.682 362.21 235.616C362.53 234.549 363.01 233.6 363.65 232.768C364.311 231.914 365.143 231.232 366.146 230.72C367.17 230.208 368.375 229.952 369.762 229.952C371.127 229.952 372.311 230.208 373.314 230.72C374.338 231.232 375.18 231.914 375.842 232.768C376.524 233.6 377.026 234.549 377.346 235.616C377.666 236.682 377.826 237.76 377.826 238.848C377.826 239.936 377.666 241.013 377.346 242.08C377.026 243.146 376.524 244.106 375.842 244.96ZM393.468 247.232H389.916V237.088C389.916 236.298 389.863 235.637 389.756 235.104C389.65 234.549 389.479 234.112 389.244 233.792C389.01 233.45 388.69 233.205 388.284 233.056C387.879 232.906 387.388 232.832 386.812 232.832C386.364 232.832 385.916 232.928 385.468 233.12C385.042 233.312 384.647 233.61 384.284 234.016C383.943 234.421 383.666 234.944 383.452 235.584C383.239 236.202 383.132 236.949 383.132 237.824V247.232H379.74V230.464H383.196V231.936C384.199 230.613 385.692 229.952 387.676 229.952C389.618 229.952 391.068 230.506 392.028 231.616C392.988 232.725 393.468 234.282 393.468 236.288V247.232ZM400.109 247.168H396.621V230.048H400.109V247.168ZM400.237 226.496H396.493V222.944H400.237V226.496ZM416.666 241.056C416.346 243.296 415.536 244.97 414.234 246.08C412.933 247.189 411.354 247.744 409.498 247.744C408.218 247.744 407.098 247.488 406.138 246.976C405.2 246.485 404.41 245.824 403.77 244.992C403.152 244.16 402.682 243.21 402.362 242.144C402.064 241.077 401.914 239.978 401.914 238.848C401.914 237.717 402.074 236.618 402.394 235.552C402.736 234.485 403.237 233.536 403.898 232.704C404.56 231.872 405.37 231.21 406.33 230.72C407.29 230.208 408.41 229.952 409.69 229.952C410.586 229.952 411.44 230.101 412.25 230.4C413.061 230.677 413.776 231.104 414.394 231.68C415.034 232.234 415.546 232.928 415.93 233.76C416.314 234.57 416.538 235.498 416.602 236.544H412.89C412.805 235.136 412.474 234.165 411.898 233.632C411.344 233.098 410.522 232.832 409.434 232.832C408.858 232.832 408.336 232.981 407.866 233.28C407.397 233.557 406.992 233.962 406.65 234.496C406.33 235.029 406.074 235.669 405.882 236.416C405.712 237.141 405.626 237.952 405.626 238.848C405.626 239.722 405.712 240.533 405.882 241.28C406.074 242.005 406.33 242.634 406.65 243.168C406.992 243.701 407.386 244.117 407.834 244.416C408.304 244.693 408.826 244.832 409.402 244.832C410.426 244.832 411.226 244.565 411.802 244.032C412.378 243.477 412.741 242.485 412.89 241.056H416.666ZM420.854 241.824C420.897 242.464 421.003 242.986 421.174 243.392C421.366 243.776 421.611 244.074 421.91 244.288C422.23 244.501 422.582 244.65 422.966 244.736C423.371 244.8 423.798 244.832 424.246 244.832C424.694 244.832 425.121 244.789 425.526 244.704C425.931 244.618 426.283 244.48 426.582 244.288C426.881 244.096 427.115 243.85 427.286 243.552C427.457 243.232 427.542 242.837 427.542 242.368C427.542 241.877 427.435 241.493 427.222 241.216C427.009 240.938 426.71 240.714 426.326 240.544C425.942 240.373 425.483 240.234 424.95 240.128C424.417 240 423.841 239.85 423.222 239.68C422.603 239.53 421.974 239.36 421.334 239.168C420.694 238.976 420.107 238.72 419.574 238.4C419.041 238.058 418.603 237.621 418.262 237.088C417.942 236.554 417.782 235.861 417.782 235.008C417.782 234.069 417.974 233.28 418.358 232.64C418.763 232 419.275 231.477 419.894 231.072C420.534 230.666 421.227 230.378 421.974 230.208C422.742 230.037 423.489 229.952 424.214 229.952C425.003 229.952 425.771 230.026 426.518 230.176C427.265 230.325 427.937 230.602 428.534 231.008C429.131 231.392 429.633 231.936 430.038 232.64C430.443 233.322 430.699 234.208 430.806 235.296H427.094C426.774 233.653 425.771 232.832 424.086 232.832C423.318 232.832 422.678 232.97 422.166 233.248C421.654 233.504 421.398 233.994 421.398 234.72C421.398 235.189 421.526 235.541 421.782 235.776C422.038 235.989 422.433 236.181 422.966 236.352C423.499 236.522 424.171 236.714 424.982 236.928C425.793 237.12 426.742 237.418 427.83 237.824C429.067 238.229 429.942 238.784 430.454 239.488C430.987 240.192 431.254 241.024 431.254 241.984C431.254 242.986 431.041 243.85 430.614 244.576C430.209 245.28 429.665 245.866 428.982 246.336C428.299 246.826 427.51 247.178 426.614 247.392C425.739 247.626 424.833 247.744 423.894 247.744C423.169 247.744 422.422 247.648 421.654 247.456C420.886 247.264 420.171 246.933 419.51 246.464C418.87 246.016 418.326 245.418 417.878 244.672C417.451 243.904 417.206 242.954 417.142 241.824H420.854ZM161.687 282.032C161.666 282.97 161.773 283.738 162.007 284.336C162.242 284.912 162.562 285.37 162.967 285.712C163.394 286.053 163.885 286.288 164.439 286.416C165.015 286.522 165.634 286.576 166.295 286.576C166.871 286.576 167.437 286.501 167.991 286.352C168.546 286.202 169.047 285.968 169.495 285.648C169.943 285.328 170.295 284.933 170.551 284.464C170.829 283.973 170.967 283.397 170.967 282.736C170.967 282.096 170.85 281.562 170.615 281.136C170.381 280.709 170.007 280.336 169.495 280.016C169.005 279.696 168.375 279.397 167.607 279.12C166.861 278.821 165.965 278.48 164.919 278.096C164.13 277.84 163.351 277.541 162.583 277.2C161.815 276.858 161.122 276.432 160.503 275.92C159.906 275.408 159.415 274.789 159.031 274.064C158.669 273.317 158.487 272.41 158.487 271.344C158.487 270.256 158.711 269.285 159.159 268.432C159.629 267.578 160.237 266.864 160.983 266.288C161.73 265.69 162.573 265.242 163.511 264.944C164.45 264.645 165.389 264.496 166.327 264.496C167.351 264.496 168.237 264.592 168.983 264.784C169.73 264.954 170.477 265.242 171.223 265.648C172.119 266.117 172.845 266.8 173.399 267.696C173.954 268.592 174.242 269.744 174.263 271.152H170.551C170.509 270.448 170.37 269.861 170.135 269.392C169.901 268.922 169.591 268.56 169.207 268.304C168.845 268.026 168.429 267.834 167.959 267.728C167.49 267.621 166.999 267.568 166.487 267.568C165.25 267.568 164.226 267.877 163.415 268.496C162.605 269.114 162.199 269.946 162.199 270.992C162.199 271.738 162.338 272.346 162.615 272.816C162.914 273.285 163.319 273.69 163.831 274.032C164.365 274.373 164.994 274.672 165.719 274.928C166.445 275.184 167.255 275.472 168.151 275.792C168.983 276.09 169.783 276.41 170.551 276.752C171.341 277.072 172.034 277.477 172.631 277.968C173.25 278.458 173.741 279.066 174.103 279.792C174.487 280.517 174.679 281.424 174.679 282.512C174.679 283.728 174.455 284.816 174.007 285.776C173.559 286.714 172.93 287.461 172.119 288.016C171.202 288.698 170.263 289.136 169.303 289.328C168.365 289.541 167.266 289.648 166.007 289.648C163.49 289.648 161.506 288.997 160.055 287.696C158.626 286.373 157.901 284.485 157.879 282.032H161.687ZM188.01 278.992C187.925 277.776 187.551 276.784 186.89 276.016C186.229 275.226 185.226 274.832 183.882 274.832C183.242 274.832 182.677 274.949 182.186 275.184C181.717 275.418 181.311 275.728 180.97 276.112C180.629 276.496 180.362 276.944 180.17 277.456C179.999 277.946 179.893 278.458 179.85 278.992H188.01ZM191.69 283.056C191.093 285.424 190.111 287.13 188.746 288.176C187.402 289.221 185.695 289.744 183.626 289.744C182.346 289.744 181.226 289.488 180.266 288.976C179.306 288.485 178.517 287.824 177.898 286.992C177.279 286.16 176.81 285.21 176.49 284.144C176.191 283.077 176.042 281.978 176.042 280.848C176.042 279.717 176.202 278.618 176.522 277.552C176.842 276.485 177.322 275.536 177.962 274.704C178.623 273.872 179.434 273.21 180.394 272.72C181.375 272.208 182.506 271.952 183.786 271.952C185.151 271.952 186.335 272.186 187.338 272.656C188.341 273.125 189.162 273.765 189.802 274.576C190.442 275.386 190.911 276.346 191.21 277.456C191.53 278.544 191.69 279.706 191.69 280.944C191.69 281.541 191.434 281.84 190.922 281.84H179.754C179.754 282.522 179.839 283.173 180.01 283.792C180.181 284.389 180.437 284.912 180.778 285.36C181.141 285.808 181.599 286.17 182.154 286.448C182.709 286.704 183.381 286.832 184.17 286.832C186.026 286.832 187.274 285.573 187.914 283.056H191.69ZM202.779 286.32C203.59 285.765 204.187 285.008 204.571 284.048C204.976 283.066 205.179 282 205.179 280.848C205.179 280.122 205.094 279.408 204.923 278.704C204.752 277.978 204.486 277.328 204.123 276.752C203.782 276.176 203.334 275.717 202.779 275.376C202.224 275.013 201.563 274.832 200.795 274.832C200.027 274.832 199.366 275.013 198.811 275.376C198.256 275.717 197.798 276.176 197.435 276.752C197.094 277.328 196.838 277.978 196.667 278.704C196.496 279.408 196.411 280.122 196.411 280.848C196.411 281.594 196.496 282.33 196.667 283.056C196.838 283.76 197.094 284.389 197.435 284.944C197.798 285.498 198.256 285.957 198.811 286.32C199.366 286.661 200.027 286.832 200.795 286.832C201.584 286.832 202.246 286.661 202.779 286.32ZM206.875 286.96C206.214 287.792 205.371 288.464 204.347 288.976C203.344 289.488 202.16 289.744 200.795 289.744C199.408 289.744 198.203 289.488 197.179 288.976C196.176 288.464 195.344 287.792 194.683 286.96C194.043 286.106 193.563 285.146 193.243 284.08C192.923 283.013 192.763 281.936 192.763 280.848C192.763 279.76 192.923 278.682 193.243 277.616C193.563 276.549 194.043 275.6 194.683 274.768C195.344 273.914 196.176 273.232 197.179 272.72C198.203 272.208 199.408 271.952 200.795 271.952C202.16 271.952 203.344 272.208 204.347 272.72C205.371 273.232 206.214 273.914 206.875 274.768C207.558 275.6 208.059 276.549 208.379 277.616C208.699 278.682 208.859 279.76 208.859 280.848C208.859 281.936 208.699 283.013 208.379 284.08C208.059 285.146 207.558 286.106 206.875 286.96ZM224.533 289.232H221.109L221.173 287.728C220.747 288.282 220.16 288.752 219.413 289.136C218.667 289.541 217.739 289.744 216.629 289.744C214.688 289.744 213.227 289.189 212.245 288.08C211.285 286.97 210.805 285.413 210.805 283.408V272.464H214.357V282.608C214.357 283.397 214.411 284.069 214.517 284.624C214.624 285.157 214.795 285.594 215.029 285.936C215.264 286.256 215.584 286.49 215.989 286.64C216.395 286.789 216.885 286.864 217.461 286.864C217.909 286.864 218.357 286.768 218.805 286.576C219.253 286.384 219.648 286.085 219.989 285.68C220.352 285.274 220.64 284.762 220.853 284.144C221.067 283.504 221.173 282.746 221.173 281.872V272.464H224.533V289.232ZM231.142 289.168H227.654V264.656H231.142V289.168ZM250.549 275.12C252.106 275.12 253.301 274.853 254.133 274.32C254.986 273.786 255.413 272.848 255.413 271.504C255.413 270.181 255.04 269.274 254.293 268.784C253.568 268.272 252.384 268.016 250.741 268.016H246.645V275.12H250.549ZM256.053 289.136C255.776 288.325 255.605 287.44 255.541 286.48C255.477 285.498 255.413 284.602 255.349 283.792C255.221 282.49 255.093 281.466 254.965 280.72C254.858 279.952 254.666 279.386 254.389 279.024C254.133 278.64 253.76 278.405 253.269 278.32C252.8 278.213 252.149 278.16 251.317 278.16H246.677V289.136H243.093V265.84C243.093 265.498 243.157 265.264 243.285 265.136C243.413 265.008 243.648 264.944 243.989 264.944H251.029C252.181 264.944 253.248 265.082 254.229 265.36C255.232 265.637 256.085 266.053 256.789 266.608C257.514 267.162 258.08 267.856 258.485 268.688C258.89 269.498 259.093 270.448 259.093 271.536C259.093 272.816 258.709 273.882 257.941 274.736C257.173 275.568 256.213 276.144 255.061 276.464C256.362 276.805 257.269 277.434 257.781 278.352C258.314 279.248 258.645 280.368 258.773 281.712C258.88 282.672 258.954 283.504 258.997 284.208C259.04 284.89 259.093 285.52 259.157 286.096C259.221 286.65 259.328 287.173 259.477 287.664C259.626 288.133 259.85 288.624 260.149 289.136H256.053ZM269.687 277.04C269.132 277.466 268.62 277.882 268.151 278.288C267.682 278.672 267.276 279.077 266.935 279.504C266.615 279.909 266.359 280.357 266.167 280.848C265.996 281.338 265.911 281.882 265.911 282.48C265.911 283.162 266.039 283.76 266.295 284.272C266.572 284.762 266.924 285.168 267.351 285.488C267.799 285.808 268.3 286.053 268.855 286.224C269.41 286.373 269.975 286.448 270.551 286.448C271.724 286.448 272.748 286.224 273.623 285.776C274.498 285.328 275.234 284.72 275.831 283.952L269.687 277.04ZM269.911 272.624C269.954 272.666 269.996 272.72 270.039 272.784C270.082 272.826 270.124 272.869 270.167 272.912C270.38 272.762 270.572 272.624 270.743 272.496C270.914 272.368 271.074 272.24 271.223 272.112C271.714 271.685 272.108 271.237 272.407 270.768C272.706 270.277 272.855 269.658 272.855 268.912C272.855 268.293 272.684 267.813 272.343 267.472C272.002 267.109 271.383 266.928 270.487 266.928C269.826 266.928 269.303 267.12 268.919 267.504C268.535 267.888 268.343 268.432 268.343 269.136C268.343 269.669 268.418 270.149 268.567 270.576C268.716 271.002 268.972 271.44 269.335 271.888C269.378 271.973 269.431 272.058 269.495 272.144C269.559 272.208 269.623 272.282 269.687 272.368C269.794 272.474 269.868 272.56 269.911 272.624ZM284.855 289.008H280.343L278.071 286.416C277.367 287.248 276.396 287.962 275.159 288.56C273.922 289.178 272.503 289.488 270.903 289.488C269.644 289.488 268.535 289.381 267.575 289.168C266.615 288.976 265.687 288.538 264.791 287.856C263.98 287.301 263.34 286.576 262.871 285.68C262.423 284.784 262.199 283.728 262.199 282.512C262.199 281.744 262.327 281.008 262.583 280.304C262.86 279.6 263.234 278.928 263.703 278.288C264.194 277.648 264.759 277.029 265.399 276.432C266.06 275.834 266.775 275.248 267.543 274.672C267.223 274.288 266.903 273.904 266.583 273.52C266.263 273.114 265.986 272.698 265.751 272.272C265.516 271.845 265.324 271.386 265.175 270.896C265.026 270.405 264.951 269.861 264.951 269.264C264.951 268.56 265.068 267.898 265.303 267.28C265.559 266.661 265.922 266.128 266.391 265.68C266.86 265.21 267.436 264.837 268.119 264.56C268.802 264.282 269.58 264.144 270.455 264.144C271.394 264.144 272.226 264.272 272.951 264.528C273.676 264.762 274.284 265.093 274.775 265.52C275.287 265.925 275.671 266.405 275.927 266.96C276.183 267.514 276.311 268.112 276.311 268.752C276.311 269.498 276.183 270.192 275.927 270.832C275.671 271.45 275.34 272.026 274.935 272.56C274.551 273.072 274.114 273.541 273.623 273.968C273.154 274.394 272.695 274.789 272.247 275.152L277.495 280.88C277.687 280.453 277.868 279.76 278.039 278.8C278.231 277.84 278.327 276.688 278.327 275.344H281.559C281.602 277.072 281.484 278.629 281.207 280.016C280.93 281.402 280.514 282.608 279.959 283.632L284.855 289.008ZM292.025 286.128C294.734 286.128 296.707 285.338 297.945 283.76C299.203 282.181 299.833 279.962 299.833 277.104C299.833 275.44 299.619 274.021 299.193 272.848C298.766 271.674 298.147 270.725 297.337 270C296.547 269.274 295.566 268.752 294.393 268.432C293.219 268.112 291.897 267.973 290.425 268.016H288.281V286.128H292.025ZM285.561 289.168C285.219 289.168 284.985 289.104 284.857 288.976C284.75 288.869 284.697 288.645 284.697 288.304V265.84C284.697 265.498 284.75 265.274 284.857 265.168C284.985 265.04 285.219 264.976 285.561 264.976H291.129C293.07 264.976 294.809 265.242 296.345 265.776C297.881 266.288 299.182 267.056 300.249 268.08C301.315 269.104 302.126 270.373 302.681 271.888C303.235 273.381 303.513 275.109 303.513 277.072C303.513 279.056 303.235 280.805 302.681 282.32C302.126 283.813 301.315 285.072 300.249 286.096C299.182 287.098 297.881 287.856 296.345 288.368C294.809 288.901 293.07 289.168 291.129 289.168H285.561ZM332.886 282.384C332.758 283.578 332.428 284.634 331.894 285.552C331.382 286.448 330.732 287.205 329.942 287.824C329.174 288.421 328.289 288.869 327.286 289.168C326.305 289.488 325.27 289.648 324.182 289.648C322.39 289.648 320.844 289.296 319.542 288.592C318.262 287.909 317.206 286.992 316.374 285.84C315.542 284.666 314.924 283.322 314.518 281.808C314.134 280.293 313.942 278.714 313.942 277.072C313.942 275.45 314.134 273.882 314.518 272.368C314.924 270.853 315.542 269.509 316.374 268.336C317.206 267.162 318.262 266.224 319.542 265.52C320.844 264.794 322.39 264.432 324.182 264.432C325.206 264.432 326.209 264.57 327.19 264.848C328.172 265.104 329.046 265.52 329.814 266.096C330.604 266.672 331.254 267.408 331.766 268.304C332.3 269.2 332.63 270.266 332.758 271.504H329.014C328.801 270.096 328.257 269.093 327.382 268.496C326.529 267.877 325.484 267.568 324.246 267.568C322.988 267.568 321.942 267.845 321.11 268.4C320.278 268.933 319.606 269.648 319.094 270.544C318.582 271.44 318.22 272.464 318.006 273.616C317.793 274.746 317.686 275.898 317.686 277.072C317.686 278.266 317.793 279.429 318.006 280.56C318.22 281.69 318.582 282.704 319.094 283.6C319.606 284.496 320.278 285.221 321.11 285.776C321.942 286.309 322.988 286.576 324.246 286.576C325.484 286.576 326.518 286.277 327.35 285.68C328.204 285.082 328.801 283.984 329.142 282.384H332.886ZM339.768 286.832C340.579 286.832 341.262 286.682 341.816 286.384C342.627 285.893 343.15 285.21 343.384 284.336C343.64 283.482 343.768 282.501 343.768 281.392C343.32 281.392 342.712 281.392 341.944 281.392C341.198 281.37 340.462 281.445 339.736 281.616C339.032 281.786 338.414 282.085 337.88 282.512C337.368 282.938 337.112 283.589 337.112 284.464C337.112 285.402 337.326 286.032 337.752 286.352C338.2 286.672 338.872 286.832 339.768 286.832ZM347.064 286.384C347.064 286.746 347.075 287.173 347.096 287.664C347.139 288.154 347.214 288.677 347.32 289.232H343.832L343.8 287.632C343.672 287.866 343.47 288.101 343.192 288.336C342.936 288.592 342.616 288.826 342.232 289.04C341.848 289.253 341.411 289.424 340.92 289.552C340.451 289.68 339.95 289.744 339.416 289.744C337.347 289.744 335.832 289.285 334.872 288.368C333.912 287.45 333.432 286.128 333.432 284.4C333.432 283.226 333.752 282.202 334.392 281.328C335.032 280.432 335.875 279.77 336.92 279.344C337.496 279.088 338.104 278.906 338.744 278.8C339.384 278.672 340.014 278.586 340.632 278.544C341.251 278.501 341.827 278.49 342.36 278.512C342.894 278.512 343.331 278.512 343.672 278.512V277.776C343.587 276.602 343.299 275.824 342.808 275.44C342.318 275.034 341.582 274.832 340.6 274.832C340.174 274.832 339.79 274.874 339.448 274.96C339.128 275.024 338.84 275.162 338.584 275.376C338.35 275.568 338.158 275.856 338.008 276.24C337.859 276.602 337.752 277.082 337.688 277.68H333.976C334.019 276.656 334.243 275.792 334.648 275.088C335.054 274.362 335.566 273.765 336.184 273.296C336.803 272.826 337.496 272.485 338.264 272.272C339.054 272.058 339.854 271.952 340.664 271.952C341.624 271.952 342.499 272.08 343.288 272.336C344.078 272.57 344.75 272.944 345.304 273.456C345.88 273.946 346.318 274.565 346.616 275.312C346.936 276.037 347.086 276.89 347.064 277.872V286.384ZM373.396 289.232H369.908V279.088C369.908 278.298 369.855 277.637 369.748 277.104C369.663 276.549 369.503 276.101 369.268 275.76C369.055 275.418 368.756 275.184 368.372 275.056C367.988 274.906 367.519 274.832 366.964 274.832C366.175 274.832 365.439 275.13 364.756 275.728C364.095 276.325 363.679 277.285 363.508 278.608V289.232H360.148V279.088C360.148 277.509 359.924 276.41 359.476 275.792C359.049 275.152 358.281 274.832 357.172 274.832C356.724 274.832 356.287 274.928 355.86 275.12C355.455 275.312 355.081 275.61 354.74 276.016C354.399 276.421 354.121 276.944 353.908 277.584C353.716 278.202 353.62 278.949 353.62 279.824V289.232H350.228V272.464H353.684V273.936C354.623 272.613 356.041 271.952 357.94 271.952C359.092 271.952 360.052 272.197 360.82 272.688C361.588 273.178 362.164 273.882 362.548 274.8C363.103 273.882 363.828 273.178 364.724 272.688C365.62 272.197 366.644 271.952 367.796 271.952C369.673 271.952 371.071 272.506 371.988 273.616C372.927 274.725 373.396 276.282 373.396 278.288V289.232ZM386.888 286.32C387.656 285.765 388.179 284.976 388.456 283.952C388.733 282.928 388.872 281.84 388.872 280.688C388.872 279.898 388.797 279.152 388.648 278.448C388.52 277.744 388.296 277.136 387.976 276.624C387.656 276.09 387.24 275.674 386.728 275.376C386.237 275.056 385.629 274.896 384.904 274.896C384.157 274.896 383.517 275.045 382.984 275.344C382.451 275.642 382.013 276.048 381.672 276.56C381.331 277.072 381.085 277.68 380.936 278.384C380.787 279.066 380.712 279.802 380.712 280.592C380.712 281.488 380.787 282.32 380.936 283.088C381.085 283.856 381.32 284.517 381.64 285.072C381.981 285.626 382.429 286.064 382.984 286.384C383.539 286.704 384.221 286.864 385.032 286.864C385.779 286.864 386.397 286.682 386.888 286.32ZM380.872 295.44H377.384V272.496H380.904L380.872 273.616C381.448 273.125 382.12 272.741 382.888 272.464C383.677 272.165 384.467 272.016 385.256 272.016C386.579 272.016 387.699 272.272 388.616 272.784C389.555 273.274 390.312 273.936 390.888 274.768C391.485 275.578 391.912 276.517 392.168 277.584C392.445 278.65 392.584 279.738 392.584 280.848C392.584 281.978 392.445 283.088 392.168 284.176C391.891 285.242 391.453 286.192 390.856 287.024C390.259 287.856 389.491 288.528 388.552 289.04C387.635 289.552 386.525 289.808 385.224 289.808C384.307 289.808 383.485 289.648 382.76 289.328C382.035 289.008 381.405 288.56 380.872 287.984V295.44ZM408.505 289.232H405.081L405.145 287.728C404.718 288.282 404.131 288.752 403.385 289.136C402.638 289.541 401.71 289.744 400.601 289.744C398.659 289.744 397.198 289.189 396.217 288.08C395.257 286.97 394.777 285.413 394.777 283.408V272.464H398.329V282.608C398.329 283.397 398.382 284.069 398.489 284.624C398.595 285.157 398.766 285.594 399.001 285.936C399.235 286.256 399.555 286.49 399.961 286.64C400.366 286.789 400.857 286.864 401.433 286.864C401.881 286.864 402.329 286.768 402.777 286.576C403.225 286.384 403.619 286.085 403.961 285.68C404.323 285.274 404.611 284.762 404.825 284.144C405.038 283.504 405.145 282.746 405.145 281.872V272.464H408.505V289.232ZM414.153 283.824C414.196 284.464 414.303 284.986 414.473 285.392C414.665 285.776 414.911 286.074 415.209 286.288C415.529 286.501 415.881 286.65 416.265 286.736C416.671 286.8 417.097 286.832 417.545 286.832C417.993 286.832 418.42 286.789 418.825 286.704C419.231 286.618 419.583 286.48 419.881 286.288C420.18 286.096 420.415 285.85 420.585 285.552C420.756 285.232 420.841 284.837 420.841 284.368C420.841 283.877 420.735 283.493 420.521 283.216C420.308 282.938 420.009 282.714 419.625 282.544C419.241 282.373 418.783 282.234 418.249 282.128C417.716 282 417.14 281.85 416.521 281.68C415.903 281.53 415.273 281.36 414.633 281.168C413.993 280.976 413.407 280.72 412.873 280.4C412.34 280.058 411.903 279.621 411.561 279.088C411.241 278.554 411.081 277.861 411.081 277.008C411.081 276.069 411.273 275.28 411.657 274.64C412.063 274 412.575 273.477 413.193 273.072C413.833 272.666 414.527 272.378 415.273 272.208C416.041 272.037 416.788 271.952 417.513 271.952C418.303 271.952 419.071 272.026 419.817 272.176C420.564 272.325 421.236 272.602 421.833 273.008C422.431 273.392 422.932 273.936 423.337 274.64C423.743 275.322 423.999 276.208 424.105 277.296H420.393C420.073 275.653 419.071 274.832 417.385 274.832C416.617 274.832 415.977 274.97 415.465 275.248C414.953 275.504 414.697 275.994 414.697 276.72C414.697 277.189 414.825 277.541 415.081 277.776C415.337 277.989 415.732 278.181 416.265 278.352C416.799 278.522 417.471 278.714 418.281 278.928C419.092 279.12 420.041 279.418 421.129 279.824C422.367 280.229 423.241 280.784 423.753 281.488C424.287 282.192 424.553 283.024 424.553 283.984C424.553 284.986 424.34 285.85 423.913 286.576C423.508 287.28 422.964 287.866 422.281 288.336C421.599 288.826 420.809 289.178 419.913 289.392C419.039 289.626 418.132 289.744 417.193 289.744C416.468 289.744 415.721 289.648 414.953 289.456C414.185 289.264 413.471 288.933 412.809 288.464C412.169 288.016 411.625 287.418 411.177 286.672C410.751 285.904 410.505 284.954 410.441 283.824H414.153ZM228.526 321.92L225.326 312.992L224.846 311.456L224.366 312.992L221.166 321.92H228.526ZM235.662 331.168H231.886L229.614 324.96H220.078L217.806 331.168H214.03L222.83 307.648C222.958 307.2 223.224 306.976 223.63 306.976H226.03C226.456 306.976 226.734 307.2 226.862 307.648L235.662 331.168ZM253.49 331.168H249.938V310.016H242.802V306.976H260.562V310.016H253.49V331.168ZM268.126 328.32C268.937 327.765 269.534 327.008 269.918 326.048C270.324 325.066 270.526 324 270.526 322.848C270.526 322.122 270.441 321.408 270.27 320.704C270.1 319.978 269.833 319.328 269.47 318.752C269.129 318.176 268.681 317.717 268.126 317.376C267.572 317.013 266.91 316.832 266.142 316.832C265.374 316.832 264.713 317.013 264.158 317.376C263.604 317.717 263.145 318.176 262.782 318.752C262.441 319.328 262.185 319.978 262.014 320.704C261.844 321.408 261.758 322.122 261.758 322.848C261.758 323.594 261.844 324.33 262.014 325.056C262.185 325.76 262.441 326.389 262.782 326.944C263.145 327.498 263.604 327.957 264.158 328.32C264.713 328.661 265.374 328.832 266.142 328.832C266.932 328.832 267.593 328.661 268.126 328.32ZM272.222 328.96C271.561 329.792 270.718 330.464 269.694 330.976C268.692 331.488 267.508 331.744 266.142 331.744C264.756 331.744 263.55 331.488 262.526 330.976C261.524 330.464 260.692 329.792 260.03 328.96C259.39 328.106 258.91 327.146 258.59 326.08C258.27 325.013 258.11 323.936 258.11 322.848C258.11 321.76 258.27 320.682 258.59 319.616C258.91 318.549 259.39 317.6 260.03 316.768C260.692 315.914 261.524 315.232 262.526 314.72C263.55 314.208 264.756 313.952 266.142 313.952C267.508 313.952 268.692 314.208 269.694 314.72C270.718 315.232 271.561 315.914 272.222 316.768C272.905 317.6 273.406 318.549 273.726 319.616C274.046 320.682 274.206 321.76 274.206 322.848C274.206 323.936 274.046 325.013 273.726 326.08C273.406 327.146 272.905 328.106 272.222 328.96ZM293.695 330.592C293.524 331.018 293.236 331.232 292.831 331.232H290.719C290.335 331.232 290.058 331.018 289.887 330.592L286.527 319.264L283.071 330.592C282.9 331.018 282.602 331.232 282.175 331.232H280.063C279.828 331.232 279.647 331.168 279.519 331.04C279.412 330.912 279.327 330.762 279.263 330.592L273.439 314.432H277.183L281.151 326.464L284.607 315.072C284.778 314.645 285.044 314.432 285.407 314.432H287.519C287.775 314.432 287.967 314.485 288.095 314.592C288.223 314.698 288.319 314.858 288.383 315.072L291.839 326.496L295.999 314.432H299.743L293.695 330.592ZM311.165 320.992C311.08 319.776 310.706 318.784 310.045 318.016C309.384 317.226 308.381 316.832 307.037 316.832C306.397 316.832 305.832 316.949 305.341 317.184C304.872 317.418 304.466 317.728 304.125 318.112C303.784 318.496 303.517 318.944 303.325 319.456C303.154 319.946 303.048 320.458 303.005 320.992H311.165ZM314.845 325.056C314.248 327.424 313.266 329.13 311.901 330.176C310.557 331.221 308.85 331.744 306.781 331.744C305.501 331.744 304.381 331.488 303.421 330.976C302.461 330.485 301.672 329.824 301.053 328.992C300.434 328.16 299.965 327.21 299.645 326.144C299.346 325.077 299.197 323.978 299.197 322.848C299.197 321.717 299.357 320.618 299.677 319.552C299.997 318.485 300.477 317.536 301.117 316.704C301.778 315.872 302.589 315.21 303.549 314.72C304.53 314.208 305.661 313.952 306.941 313.952C308.306 313.952 309.49 314.186 310.493 314.656C311.496 315.125 312.317 315.765 312.957 316.576C313.597 317.386 314.066 318.346 314.365 319.456C314.685 320.544 314.845 321.706 314.845 322.944C314.845 323.541 314.589 323.84 314.077 323.84H302.909C302.909 324.522 302.994 325.173 303.165 325.792C303.336 326.389 303.592 326.912 303.933 327.36C304.296 327.808 304.754 328.17 305.309 328.448C305.864 328.704 306.536 328.832 307.325 328.832C309.181 328.832 310.429 327.573 311.069 325.056H314.845ZM320.622 331.232H317.134V314.464H320.686L320.622 316.256C320.814 316 321.027 315.744 321.262 315.488C321.497 315.21 321.753 314.965 322.03 314.752C322.329 314.517 322.649 314.325 322.99 314.176C323.353 314.026 323.758 313.952 324.206 313.952C324.505 313.952 324.825 313.973 325.166 314.016C325.529 314.037 325.902 314.122 326.286 314.272V317.696C325.859 317.504 325.486 317.386 325.166 317.344C324.867 317.28 324.59 317.248 324.334 317.248C323.843 317.248 323.374 317.322 322.926 317.472C322.499 317.621 322.105 317.877 321.742 318.24C321.401 318.602 321.123 319.082 320.91 319.68C320.718 320.256 320.622 320.981 320.622 321.856V331.232ZM349.833 331.008H335.369C335.028 331.008 334.793 330.944 334.665 330.816C334.559 330.709 334.505 330.485 334.505 330.144V328.064C335.017 327.573 335.647 326.965 336.393 326.24C337.14 325.493 337.919 324.693 338.729 323.84C339.561 322.965 340.383 322.058 341.193 321.12C342.025 320.16 342.761 319.221 343.401 318.304C344.063 317.386 344.596 316.522 345.001 315.712C345.407 314.88 345.609 314.144 345.609 313.504C345.631 312.224 345.311 311.296 344.649 310.72C343.988 310.144 343.103 309.856 341.993 309.856C340.905 309.856 340.031 310.24 339.369 311.008C338.729 311.754 338.409 312.874 338.409 314.368H334.697C334.697 313.194 334.889 312.149 335.273 311.232C335.657 310.293 336.169 309.504 336.809 308.864C337.471 308.202 338.239 307.701 339.113 307.36C340.009 306.997 340.969 306.816 341.993 306.816C343.017 306.816 343.967 306.965 344.841 307.264C345.737 307.541 346.516 307.957 347.177 308.512C347.839 309.045 348.361 309.717 348.745 310.528C349.129 311.338 349.321 312.256 349.321 313.28C349.321 314.218 349.129 315.168 348.745 316.128C348.361 317.088 347.86 318.037 347.241 318.976C346.623 319.914 345.929 320.832 345.161 321.728C344.415 322.602 343.657 323.434 342.889 324.224C342.121 324.992 341.396 325.696 340.713 326.336C340.052 326.976 339.508 327.52 339.081 327.968H349.833V331.008ZM356.537 331.168H352.953V307.872C352.953 307.53 353.006 307.306 353.113 307.2C353.241 307.072 353.475 307.008 353.817 307.008H367.065V310.016H356.537V317.056H366.969V320.096H356.537V331.168ZM180.996 373.168H177.444V348.88H180.996V373.168ZM198.698 373.232H195.146V363.088C195.146 362.298 195.093 361.637 194.986 361.104C194.88 360.549 194.709 360.112 194.474 359.792C194.24 359.45 193.92 359.205 193.514 359.056C193.109 358.906 192.618 358.832 192.042 358.832C191.594 358.832 191.146 358.928 190.698 359.12C190.272 359.312 189.877 359.61 189.514 360.016C189.173 360.421 188.896 360.944 188.682 361.584C188.469 362.202 188.362 362.949 188.362 363.824V373.232H184.97V356.464H188.426V357.936C189.429 356.613 190.922 355.952 192.906 355.952C194.848 355.952 196.298 356.506 197.258 357.616C198.218 358.725 198.698 360.282 198.698 362.288V373.232ZM215.707 373.232H212.155V363.088C212.155 362.298 212.102 361.637 211.995 361.104C211.888 360.549 211.718 360.112 211.483 359.792C211.248 359.45 210.928 359.205 210.523 359.056C210.118 358.906 209.627 358.832 209.051 358.832C208.603 358.832 208.155 358.928 207.707 359.12C207.28 359.312 206.886 359.61 206.523 360.016C206.182 360.421 205.904 360.944 205.691 361.584C205.478 362.202 205.371 362.949 205.371 363.824V373.232H201.979V356.464H205.435V357.936C206.438 356.613 207.931 355.952 209.915 355.952C211.856 355.952 213.307 356.506 214.267 357.616C215.227 358.725 215.707 360.282 215.707 362.288V373.232ZM227.596 370.32C228.406 369.765 229.004 369.008 229.388 368.048C229.793 367.066 229.996 366 229.996 364.848C229.996 364.122 229.91 363.408 229.74 362.704C229.569 361.978 229.302 361.328 228.94 360.752C228.598 360.176 228.15 359.717 227.596 359.376C227.041 359.013 226.38 358.832 225.612 358.832C224.844 358.832 224.182 359.013 223.628 359.376C223.073 359.717 222.614 360.176 222.252 360.752C221.91 361.328 221.654 361.978 221.484 362.704C221.313 363.408 221.228 364.122 221.228 364.848C221.228 365.594 221.313 366.33 221.484 367.056C221.654 367.76 221.91 368.389 222.252 368.944C222.614 369.498 223.073 369.957 223.628 370.32C224.182 370.661 224.844 370.832 225.612 370.832C226.401 370.832 227.062 370.661 227.596 370.32ZM231.692 370.96C231.03 371.792 230.188 372.464 229.164 372.976C228.161 373.488 226.977 373.744 225.612 373.744C224.225 373.744 223.02 373.488 221.996 372.976C220.993 372.464 220.161 371.792 219.5 370.96C218.86 370.106 218.38 369.146 218.06 368.08C217.74 367.013 217.58 365.936 217.58 364.848C217.58 363.76 217.74 362.682 218.06 361.616C218.38 360.549 218.86 359.6 219.5 358.768C220.161 357.914 220.993 357.232 221.996 356.72C223.02 356.208 224.225 355.952 225.612 355.952C226.977 355.952 228.161 356.208 229.164 356.72C230.188 357.232 231.03 357.914 231.692 358.768C232.374 359.6 232.876 360.549 233.196 361.616C233.516 362.682 233.676 363.76 233.676 364.848C233.676 365.936 233.516 367.013 233.196 368.08C232.876 369.146 232.374 370.106 231.692 370.96ZM243.054 372.624C242.904 373.029 242.606 373.232 242.158 373.232H240.078C239.822 373.232 239.63 373.168 239.502 373.04C239.395 372.933 239.31 372.794 239.246 372.624L232.75 356.432H236.526L241.198 368.688L245.806 356.432H249.614L243.054 372.624ZM254.93 370.832C255.741 370.832 256.424 370.682 256.978 370.384C257.789 369.893 258.312 369.21 258.546 368.336C258.802 367.482 258.93 366.501 258.93 365.392C258.482 365.392 257.874 365.392 257.106 365.392C256.36 365.37 255.624 365.445 254.898 365.616C254.194 365.786 253.576 366.085 253.042 366.512C252.53 366.938 252.274 367.589 252.274 368.464C252.274 369.402 252.488 370.032 252.914 370.352C253.362 370.672 254.034 370.832 254.93 370.832ZM262.226 370.384C262.226 370.746 262.237 371.173 262.258 371.664C262.301 372.154 262.376 372.677 262.482 373.232H258.994L258.962 371.632C258.834 371.866 258.632 372.101 258.354 372.336C258.098 372.592 257.778 372.826 257.394 373.04C257.01 373.253 256.573 373.424 256.082 373.552C255.613 373.68 255.112 373.744 254.578 373.744C252.509 373.744 250.994 373.285 250.034 372.368C249.074 371.45 248.594 370.128 248.594 368.4C248.594 367.226 248.914 366.202 249.554 365.328C250.194 364.432 251.037 363.77 252.082 363.344C252.658 363.088 253.266 362.906 253.906 362.8C254.546 362.672 255.176 362.586 255.794 362.544C256.413 362.501 256.989 362.49 257.522 362.512C258.056 362.512 258.493 362.512 258.834 362.512V361.776C258.749 360.602 258.461 359.824 257.97 359.44C257.48 359.034 256.744 358.832 255.762 358.832C255.336 358.832 254.952 358.874 254.61 358.96C254.29 359.024 254.002 359.162 253.746 359.376C253.512 359.568 253.32 359.856 253.17 360.24C253.021 360.602 252.914 361.082 252.85 361.68H249.138C249.181 360.656 249.405 359.792 249.81 359.088C250.216 358.362 250.728 357.765 251.346 357.296C251.965 356.826 252.658 356.485 253.426 356.272C254.216 356.058 255.016 355.952 255.826 355.952C256.786 355.952 257.661 356.08 258.45 356.336C259.24 356.57 259.912 356.944 260.466 357.456C261.042 357.946 261.48 358.565 261.778 359.312C262.098 360.037 262.248 360.89 262.226 361.872V370.384ZM273.678 373.264C273.315 373.413 272.878 373.52 272.366 373.584C271.854 373.669 271.416 373.712 271.054 373.712C270.435 373.712 269.848 373.637 269.294 373.488C268.76 373.36 268.28 373.125 267.854 372.784C267.448 372.464 267.128 372.037 266.894 371.504C266.659 370.949 266.542 370.256 266.542 369.424V359.28H263.438V356.368H266.542V351.792H269.966V356.368H273.486V359.28H269.966V368.752C269.966 369.648 270.072 370.224 270.286 370.48C270.52 370.736 270.894 370.864 271.406 370.864C271.704 370.864 272.046 370.842 272.43 370.8C272.835 370.757 273.251 370.618 273.678 370.384V373.264ZM278.664 373.168H275.176V356.048H278.664V373.168ZM278.792 352.496H275.048V348.944H278.792V352.496ZM290.389 370.32C291.2 369.765 291.797 369.008 292.181 368.048C292.587 367.066 292.789 366 292.789 364.848C292.789 364.122 292.704 363.408 292.533 362.704C292.363 361.978 292.096 361.328 291.733 360.752C291.392 360.176 290.944 359.717 290.389 359.376C289.835 359.013 289.173 358.832 288.405 358.832C287.637 358.832 286.976 359.013 286.421 359.376C285.867 359.717 285.408 360.176 285.045 360.752C284.704 361.328 284.448 361.978 284.277 362.704C284.107 363.408 284.021 364.122 284.021 364.848C284.021 365.594 284.107 366.33 284.277 367.056C284.448 367.76 284.704 368.389 285.045 368.944C285.408 369.498 285.867 369.957 286.421 370.32C286.976 370.661 287.637 370.832 288.405 370.832C289.195 370.832 289.856 370.661 290.389 370.32ZM294.485 370.96C293.824 371.792 292.981 372.464 291.957 372.976C290.955 373.488 289.771 373.744 288.405 373.744C287.019 373.744 285.813 373.488 284.789 372.976C283.787 372.464 282.955 371.792 282.293 370.96C281.653 370.106 281.173 369.146 280.853 368.08C280.533 367.013 280.373 365.936 280.373 364.848C280.373 363.76 280.533 362.682 280.853 361.616C281.173 360.549 281.653 359.6 282.293 358.768C282.955 357.914 283.787 357.232 284.789 356.72C285.813 356.208 287.019 355.952 288.405 355.952C289.771 355.952 290.955 356.208 291.957 356.72C292.981 357.232 293.824 357.914 294.485 358.768C295.168 359.6 295.669 360.549 295.989 361.616C296.309 362.682 296.469 363.76 296.469 364.848C296.469 365.936 296.309 367.013 295.989 368.08C295.669 369.146 295.168 370.106 294.485 370.96ZM312.112 373.232H308.56V363.088C308.56 362.298 308.507 361.637 308.4 361.104C308.293 360.549 308.123 360.112 307.888 359.792C307.653 359.45 307.333 359.205 306.928 359.056C306.523 358.906 306.032 358.832 305.456 358.832C305.008 358.832 304.56 358.928 304.112 359.12C303.685 359.312 303.291 359.61 302.928 360.016C302.587 360.421 302.309 360.944 302.096 361.584C301.883 362.202 301.776 362.949 301.776 363.824V373.232H298.384V356.464H301.84V357.936C302.843 356.613 304.336 355.952 306.32 355.952C308.261 355.952 309.712 356.506 310.672 357.616C311.632 358.725 312.112 360.282 312.112 362.288V373.232ZM326.498 366.032C326.477 366.97 326.583 367.738 326.818 368.336C327.053 368.912 327.373 369.37 327.778 369.712C328.205 370.053 328.695 370.288 329.25 370.416C329.826 370.522 330.445 370.576 331.106 370.576C331.682 370.576 332.247 370.501 332.802 370.352C333.357 370.202 333.858 369.968 334.306 369.648C334.754 369.328 335.106 368.933 335.362 368.464C335.639 367.973 335.778 367.397 335.778 366.736C335.778 366.096 335.661 365.562 335.426 365.136C335.191 364.709 334.818 364.336 334.306 364.016C333.815 363.696 333.186 363.397 332.418 363.12C331.671 362.821 330.775 362.48 329.73 362.096C328.941 361.84 328.162 361.541 327.394 361.2C326.626 360.858 325.933 360.432 325.314 359.92C324.717 359.408 324.226 358.789 323.842 358.064C323.479 357.317 323.298 356.41 323.298 355.344C323.298 354.256 323.522 353.285 323.97 352.432C324.439 351.578 325.047 350.864 325.794 350.288C326.541 349.69 327.383 349.242 328.322 348.944C329.261 348.645 330.199 348.496 331.138 348.496C332.162 348.496 333.047 348.592 333.794 348.784C334.541 348.954 335.287 349.242 336.034 349.648C336.93 350.117 337.655 350.8 338.21 351.696C338.765 352.592 339.053 353.744 339.074 355.152H335.362C335.319 354.448 335.181 353.861 334.946 353.392C334.711 352.922 334.402 352.56 334.018 352.304C333.655 352.026 333.239 351.834 332.77 351.728C332.301 351.621 331.81 351.568 331.298 351.568C330.061 351.568 329.037 351.877 328.226 352.496C327.415 353.114 327.01 353.946 327.01 354.992C327.01 355.738 327.149 356.346 327.426 356.816C327.725 357.285 328.13 357.69 328.642 358.032C329.175 358.373 329.805 358.672 330.53 358.928C331.255 359.184 332.066 359.472 332.962 359.792C333.794 360.09 334.594 360.41 335.362 360.752C336.151 361.072 336.845 361.477 337.442 361.968C338.061 362.458 338.551 363.066 338.914 363.792C339.298 364.517 339.49 365.424 339.49 366.512C339.49 367.728 339.266 368.816 338.818 369.776C338.37 370.714 337.741 371.461 336.93 372.016C336.013 372.698 335.074 373.136 334.114 373.328C333.175 373.541 332.077 373.648 330.818 373.648C328.301 373.648 326.317 372.997 324.866 371.696C323.437 370.373 322.711 368.485 322.69 366.032H326.498ZM350.293 373.264C349.93 373.413 349.493 373.52 348.981 373.584C348.469 373.669 348.031 373.712 347.669 373.712C347.05 373.712 346.463 373.637 345.909 373.488C345.375 373.36 344.895 373.125 344.469 372.784C344.063 372.464 343.743 372.037 343.509 371.504C343.274 370.949 343.157 370.256 343.157 369.424V359.28H340.053V356.368H343.157V351.792H346.581V356.368H350.101V359.28H346.581V368.752C346.581 369.648 346.687 370.224 346.901 370.48C347.135 370.736 347.509 370.864 348.021 370.864C348.319 370.864 348.661 370.842 349.045 370.8C349.45 370.757 349.866 370.618 350.293 370.384V373.264ZM365.679 373.232H362.255L362.319 371.728C361.892 372.282 361.306 372.752 360.559 373.136C359.812 373.541 358.884 373.744 357.775 373.744C355.834 373.744 354.372 373.189 353.391 372.08C352.431 370.97 351.951 369.413 351.951 367.408V356.464H355.503V366.608C355.503 367.397 355.556 368.069 355.663 368.624C355.77 369.157 355.94 369.594 356.175 369.936C356.41 370.256 356.73 370.49 357.135 370.64C357.54 370.789 358.031 370.864 358.607 370.864C359.055 370.864 359.503 370.768 359.951 370.576C360.399 370.384 360.794 370.085 361.135 369.68C361.498 369.274 361.786 368.762 361.999 368.144C362.212 367.504 362.319 366.746 362.319 365.872V356.464H365.679V373.232ZM377.408 370.256C378.24 369.765 378.826 369.029 379.168 368.048C379.53 367.045 379.712 365.84 379.712 364.432C379.712 363.642 379.637 362.906 379.488 362.224C379.338 361.52 379.093 360.912 378.752 360.4C378.41 359.888 377.973 359.493 377.44 359.216C376.928 358.917 376.298 358.768 375.552 358.768C374.805 358.768 374.176 358.917 373.664 359.216C373.173 359.514 372.768 359.93 372.448 360.464C372.128 360.976 371.893 361.584 371.744 362.288C371.616 362.992 371.552 363.738 371.552 364.528C371.552 365.274 371.605 366.021 371.712 366.768C371.84 367.493 372.042 368.154 372.32 368.752C372.618 369.328 373.013 369.808 373.504 370.192C373.994 370.554 374.613 370.736 375.36 370.736C376.17 370.736 376.853 370.576 377.408 370.256ZM379.808 373.168L379.744 371.92C379.658 372.069 379.498 372.24 379.264 372.432C379.029 372.645 378.72 372.837 378.336 373.008C377.973 373.2 377.525 373.36 376.992 373.488C376.458 373.616 375.85 373.68 375.168 373.68C373.888 373.68 372.778 373.424 371.84 372.912C370.922 372.4 370.165 371.728 369.568 370.896C368.97 370.064 368.533 369.114 368.256 368.048C367.978 366.96 367.84 365.84 367.84 364.688C367.84 363.578 367.968 362.501 368.224 361.456C368.501 360.389 368.928 359.45 369.504 358.64C370.08 357.808 370.826 357.146 371.744 356.656C372.682 356.144 373.813 355.888 375.136 355.888C376.16 355.888 377.077 356.069 377.888 356.432C378.698 356.794 379.285 357.221 379.648 357.712V348.752H383.008V369.872C383.008 370.298 383.029 370.8 383.072 371.376C383.114 371.952 383.2 372.549 383.328 373.168H379.808ZM389.296 373.168H385.808V356.048H389.296V373.168ZM389.424 352.496H385.68V348.944H389.424V352.496ZM401.022 370.32C401.833 369.765 402.43 369.008 402.814 368.048C403.219 367.066 403.422 366 403.422 364.848C403.422 364.122 403.337 363.408 403.166 362.704C402.995 361.978 402.729 361.328 402.366 360.752C402.025 360.176 401.577 359.717 401.022 359.376C400.467 359.013 399.806 358.832 399.038 358.832C398.27 358.832 397.609 359.013 397.054 359.376C396.499 359.717 396.041 360.176 395.678 360.752C395.337 361.328 395.081 361.978 394.91 362.704C394.739 363.408 394.654 364.122 394.654 364.848C394.654 365.594 394.739 366.33 394.91 367.056C395.081 367.76 395.337 368.389 395.678 368.944C396.041 369.498 396.499 369.957 397.054 370.32C397.609 370.661 398.27 370.832 399.038 370.832C399.827 370.832 400.489 370.661 401.022 370.32ZM405.118 370.96C404.457 371.792 403.614 372.464 402.59 372.976C401.587 373.488 400.403 373.744 399.038 373.744C397.651 373.744 396.446 373.488 395.422 372.976C394.419 372.464 393.587 371.792 392.926 370.96C392.286 370.106 391.806 369.146 391.486 368.08C391.166 367.013 391.006 365.936 391.006 364.848C391.006 363.76 391.166 362.682 391.486 361.616C391.806 360.549 392.286 359.6 392.926 358.768C393.587 357.914 394.419 357.232 395.422 356.72C396.446 356.208 397.651 355.952 399.038 355.952C400.403 355.952 401.587 356.208 402.59 356.72C403.614 357.232 404.457 357.914 405.118 358.768C405.801 359.6 406.302 360.549 406.622 361.616C406.942 362.682 407.102 363.76 407.102 364.848C407.102 365.936 406.942 367.013 406.622 368.08C406.302 369.146 405.801 370.106 405.118 370.96Z" fill="black"/>
<defs>
<linearGradient id="paint0_linear_454_7546" x1="277.283" y1="1617.75" x2="321.294" y2="1617.75" gradientUnits="userSpaceOnUse">
<stop stop-color="#DFDFDF"/>
<stop offset="0.22" stop-color="white"/>
<stop offset="0.61" stop-color="#F2F2F2"/>
<stop offset="1" stop-color="#959595"/>
</linearGradient>
<linearGradient id="paint1_linear_454_7546" x1="276.783" y1="631.513" x2="320.725" y2="631.513" gradientUnits="userSpaceOnUse">
<stop stop-color="#B3B3B3"/>
<stop offset="1" stop-color="#959595"/>
</linearGradient>
</defs>
</svg>
