<svg width="582" height="2656" viewBox="0 0 582 2656" fill="none" xmlns="http://www.w3.org/2000/svg">
<path d="M313.784 576.957H268.815V1715.87H313.784V576.957Z" fill="url(#paint0_linear_454_7545)"/>
<path d="M269.815 2656V576.957H313.785V2656" fill="url(#paint1_linear_454_7545)"/>
<g opacity="0.8">
<mask id="mask0_454_7545" style="mask-type:luminance" maskUnits="userSpaceOnUse" x="269" y="580" width="45" height="104">
<path d="M269.132 580.235H313.044V683.562C313.044 683.562 313.101 616.553 269.132 599.299V580.235Z" fill="white"/>
</mask>
<g mask="url(#mask0_454_7545)">
<path d="M313.09 580.235H269.132V683.562H313.09V580.235Z" fill="url(#paint2_linear_454_7545)"/>
</g>
</g>
<path d="M291.254 581.356C451.417 581.356 581.254 451.439 581.254 291.178C581.254 130.917 451.417 1 291.254 1C131.091 1 1.25391 130.917 1.25391 291.178C1.25391 451.439 131.091 581.356 291.254 581.356Z" fill="#F35D2C" stroke="#EC4006" stroke-width="0.647782" stroke-miterlimit="10"/>
<path d="M291.251 546.002C223.223 546.002 159.273 519.494 111.163 471.365C63.0643 423.237 36.5728 359.236 36.5728 291.178C36.5728 223.12 63.0643 159.119 111.163 110.991C159.262 62.8625 223.223 36.3547 291.251 36.3547C359.278 36.3547 423.228 62.8625 471.327 110.991C519.426 159.119 545.918 223.12 545.918 291.178C545.918 359.236 519.426 423.237 471.327 471.365C423.228 519.494 359.267 546.002 291.251 546.002Z" fill="#EBF5FF"/>
<path d="M291.255 553.398C435.986 553.398 553.314 435.998 553.314 291.178C553.314 146.359 435.986 28.959 291.255 28.959C146.524 28.959 29.1968 146.359 29.1968 291.178C29.1968 435.998 146.524 553.398 291.255 553.398Z" stroke="white" stroke-width="2.2971" stroke-miterlimit="10"/>
<path d="M171.426 254.753C168.001 253.249 164.987 251.203 162.4 248.607C161.483 247.688 160.688 247.226 160.016 247.226C159.177 247.226 158.635 248.021 158.382 249.612L157.255 255.382H154.126L154.379 217.868H157.638C157.97 223.978 159.185 229.618 161.273 234.803C163.361 239.988 166.201 244.109 169.8 247.161C173.392 250.212 177.402 251.738 181.839 251.738C186.855 251.738 190.677 250.125 193.315 246.908C195.946 243.69 197.261 239.901 197.261 235.555C197.261 231.961 196.422 228.635 194.753 225.584C193.077 222.532 190.93 219.77 188.293 217.304C185.662 214.839 182.251 212.018 178.074 208.837C172.64 204.657 168.42 201.208 165.414 198.489C162.408 195.771 159.914 192.596 157.956 188.952C155.99 185.315 155.008 181.193 155.008 176.594C155.008 171.742 156.092 167.498 158.267 163.861C160.442 160.224 163.405 157.44 167.17 155.516C170.935 153.593 175.191 152.631 179.961 152.631C183.473 152.631 186.566 153.152 189.239 154.2C191.913 155.249 194.377 156.854 196.639 159.03C197.557 159.782 198.309 160.158 198.894 160.158C199.978 160.158 200.65 159.327 200.903 157.649L201.532 153.882H204.538L206.041 186.877H202.905C202.233 178.597 199.978 171.677 196.133 166.117C192.289 160.556 187.187 157.772 180.835 157.772C176.405 157.772 172.915 159.175 170.364 161.973C167.813 164.779 166.541 168.228 166.541 172.321C166.541 175.416 167.271 178.257 168.738 180.853C170.198 183.449 172.207 185.915 174.758 188.258C177.308 190.601 180.878 193.486 185.474 196.913C190.742 200.76 194.963 204.209 198.135 207.261C201.308 210.312 203.88 213.768 205.846 217.608C207.811 221.455 208.794 225.808 208.794 230.652C208.794 235.837 207.645 240.421 205.347 244.391C203.049 248.368 199.869 251.463 195.815 253.676C191.761 255.888 187.187 257.002 182.085 257.002C178.407 257.002 174.851 256.25 171.426 254.746V254.753Z" fill="black"/>
<path d="M251.503 254.875L251.25 244.209L250.874 244.086C245.44 252.698 239.044 257.008 231.688 257.008C227.424 257.008 224.078 255.395 221.658 252.178C219.229 248.96 218.023 244.549 218.023 238.938V203.557C218.023 200.376 217.835 198.206 217.459 197.035C217.083 195.863 216.223 195.278 214.886 195.278C213.882 195.278 212.256 195.61 209.994 196.283L209.12 193.521L228.429 187.251L230.185 188.886V237.687C230.185 241.368 230.77 244.108 231.941 245.901C233.111 247.702 234.868 248.598 237.209 248.598C239.55 248.598 241.928 247.723 244.356 245.966C246.777 244.209 249.075 241.866 251.25 238.938V203.557C251.25 200.296 251.084 198.098 250.751 196.97C250.419 195.842 249.537 195.278 248.121 195.278C247.116 195.278 245.49 195.61 243.229 196.283L242.354 193.521L261.786 187.251L263.419 188.886V240.073C263.419 243.334 263.585 245.554 263.918 246.726C264.25 247.897 265.045 248.483 266.303 248.483C267.56 248.483 269.265 248.063 271.441 247.225L272.568 250.11L254.01 257.008L251.503 254.875Z" fill="black"/>
<path d="M322.236 195.222C325.409 201.202 326.998 209.206 326.998 219.243C326.998 226.185 326.138 232.475 324.426 238.123C322.713 243.77 320.227 248.246 316.968 251.543C313.709 254.848 309.864 256.497 305.435 256.497C302.428 256.497 299.581 255.723 296.907 254.175C294.234 252.628 292.058 250.394 290.389 247.465H290.136V269.671C290.136 272.513 290.346 274.624 290.765 276.005C291.184 277.387 292.022 278.327 293.273 278.826C294.53 279.324 296.452 279.578 299.039 279.578V282.586H269.201V279.578C271.788 279.578 273.696 279.324 274.903 278.826C276.11 278.327 276.926 277.379 277.345 276.005C277.765 274.624 277.974 272.513 277.974 269.671V203.429C277.974 200.002 277.851 197.724 277.598 196.589C277.345 195.461 276.594 194.897 275.344 194.897C274.426 194.897 272.793 195.359 270.451 196.278L269.324 193.392L288.135 185.988L290.143 187.868V198.91H290.642C295.823 190.464 301.713 186.241 308.318 186.241C314.417 186.241 319.057 189.235 322.236 195.215V195.222ZM311.079 242.201C312.914 236.684 313.839 229.655 313.839 221.123C313.839 203.646 310.284 194.904 303.18 194.904C300.752 194.904 298.418 195.829 296.156 197.666C293.901 199.51 291.892 201.932 290.136 204.94V227.775C290.136 232.295 290.678 236.286 291.769 239.757C292.853 243.228 294.32 245.882 296.156 247.725C297.991 249.569 300.044 250.488 302.298 250.488C306.309 250.488 309.236 247.725 311.071 242.208L311.079 242.201Z" fill="black"/>
<path d="M377.879 228.149C376.622 237.932 374.013 245.192 370.046 249.914C366.071 254.643 361.041 257 354.935 257C350.252 257 346.177 255.597 342.708 252.799C339.239 250.001 336.565 246.024 334.686 240.883C332.808 235.741 331.868 229.74 331.868 222.878C331.868 216.015 332.829 210.064 334.752 204.497C336.674 198.936 339.413 194.504 342.961 191.199C346.509 187.894 350.715 186.246 355.564 186.246C362.588 186.246 367.935 189.196 371.614 195.089C375.292 200.982 377.127 208.741 377.127 218.358H344.03V218.611C344.03 227.39 345.367 234.44 348.041 239.747C350.715 245.062 354.603 247.716 359.705 247.716C362.964 247.716 365.955 246.212 368.673 243.196C371.39 240.188 373.456 235.17 374.88 228.142H377.886L377.879 228.149ZM344.153 213.217H365.088C365.088 198.748 361.909 191.517 355.556 191.517C348.785 191.517 344.984 198.755 344.146 213.217H344.153Z" fill="black"/>
<path d="M420.87 188.012C422.04 189.184 422.626 190.818 422.626 192.908C422.626 195.251 422.019 197.174 420.805 198.678C419.591 200.182 418.153 200.934 416.476 200.934C415.392 200.934 414.532 200.746 413.903 200.37C413.275 199.994 412.501 199.307 411.584 198.302C410.745 197.47 410.102 196.899 409.64 196.61C409.177 196.321 408.57 196.169 407.819 196.169C406.316 196.169 404.769 197.196 403.179 199.242C401.59 201.296 400.173 204.195 398.916 207.963V241.333C398.916 244.341 399.226 246.561 399.855 247.986C400.484 249.41 401.712 250.415 403.555 250.994C405.391 251.579 408.274 251.869 412.205 251.869V255.007H378.356V251.999C380.864 251.999 382.7 251.731 383.87 251.182C385.041 250.639 385.836 249.699 386.255 248.362C386.674 247.024 386.884 244.934 386.884 242.092V203.45C386.884 200.023 386.761 197.745 386.508 196.61C386.255 195.482 385.547 194.918 384.376 194.918C383.292 194.918 381.616 195.417 379.361 196.422L378.104 193.537L388.134 189.524L396.661 186.01L398.916 187.89V199.936H399.292C401.3 196.169 403.765 192.951 406.691 190.276C409.618 187.6 412.668 186.263 415.847 186.263C418.023 186.263 419.692 186.848 420.862 188.02L420.87 188.012Z" fill="black"/>
<path d="M172.073 377.372C168.648 375.868 165.634 373.821 163.047 371.225C162.129 370.307 161.334 369.844 160.662 369.844C159.824 369.844 159.282 370.64 159.029 372.231L157.902 378.001H154.766L155.019 340.487H158.278C158.61 346.597 159.824 352.237 161.913 357.422C164.001 362.606 166.841 366.728 170.44 369.779C174.031 372.831 178.042 374.356 182.479 374.356C187.494 374.356 191.317 372.744 193.955 369.526C196.585 366.308 197.9 362.519 197.9 358.174C197.9 354.58 197.062 351.254 195.393 348.202C193.716 345.151 191.57 342.389 188.932 339.923C186.302 337.457 182.891 334.637 178.714 331.456C173.28 327.276 169.06 323.827 166.053 321.108C163.047 318.389 160.554 315.215 158.596 311.571C156.63 307.933 155.647 303.812 155.647 299.213C155.647 294.361 156.731 290.116 158.906 286.479C161.082 282.842 164.044 280.058 167.809 278.135C171.574 276.211 175.831 275.25 180.6 275.25C184.112 275.25 187.205 275.77 189.879 276.819C192.553 277.867 195.017 279.473 197.279 281.649C198.197 282.401 198.948 282.777 199.534 282.777C200.618 282.777 201.29 281.946 201.543 280.268L202.171 276.501H205.177L206.681 309.495H203.544C202.872 301.216 200.618 294.296 196.773 288.735C192.929 283.175 187.827 280.391 181.475 280.391C177.045 280.391 173.554 281.794 171.003 284.592C168.453 287.398 167.181 290.847 167.181 294.939C167.181 298.034 167.911 300.876 169.378 303.472C170.837 306.068 172.846 308.534 175.397 310.876C177.948 313.219 181.518 316.104 186.114 319.532C191.382 323.379 195.602 326.828 198.775 329.879C201.947 332.931 204.52 336.387 206.485 340.227C208.451 344.073 209.434 348.426 209.434 353.271C209.434 358.456 208.285 363.04 205.987 367.01C203.689 370.987 200.509 374.082 196.455 376.294C192.401 378.507 187.827 379.621 182.725 379.621C179.047 379.621 175.491 378.869 172.066 377.365L172.073 377.372Z" fill="black"/>
<path d="M226.307 375.176C222.21 372.211 219.052 368.068 216.841 362.753C214.622 357.446 213.517 351.401 213.517 344.625C213.517 337.85 214.579 331.747 216.711 326.309C218.843 320.872 221.957 316.605 226.055 313.511C230.152 310.416 234.958 308.868 240.471 308.868C245.985 308.868 250.523 310.351 254.577 313.323C258.631 316.295 261.789 320.431 264.044 325.745C266.299 331.06 267.426 337.098 267.426 343.873C267.426 350.649 266.342 356.751 264.167 362.189C261.992 367.627 258.877 371.893 254.823 374.988C250.769 378.083 245.985 379.63 240.464 379.63C234.943 379.63 230.39 378.148 226.3 375.176H226.307ZM251.636 367.337C253.725 362.818 254.773 357.467 254.773 351.278C254.773 345.088 254.165 339.419 252.951 333.779C251.737 328.132 249.924 323.489 247.495 319.852C245.067 316.215 242.104 314.393 238.592 314.393C234.416 314.393 231.279 316.649 229.191 321.168C227.102 325.687 226.055 331.038 226.055 337.228C226.055 343.418 226.662 349.087 227.876 354.727C229.082 360.374 230.925 365.016 233.389 368.653C235.854 372.291 238.845 374.113 242.35 374.113C246.448 374.113 249.541 371.857 251.629 367.337H251.636Z" fill="black"/>
<path d="M281.938 375.299C278.426 372.414 275.752 368.4 273.916 363.252C272.074 358.111 271.156 352.196 271.156 345.5C271.156 338.472 272.16 332.203 274.162 326.678C276.171 321.161 279.069 316.808 282.877 313.634C286.678 310.452 291.216 308.868 296.485 308.868C301.753 308.868 306.016 310.394 309.275 313.446C312.534 316.497 314.168 320.409 314.168 325.174C314.168 327.85 313.582 329.925 312.412 331.385C311.241 332.846 309.608 333.584 307.519 333.584C305.677 333.584 304.239 333.041 303.191 331.949C302.143 330.865 301.623 329.484 301.623 327.806C301.623 327.141 301.666 326.533 301.745 325.984C301.825 325.442 301.912 324.957 301.998 324.538C302.331 322.867 302.497 321.53 302.497 320.525C302.497 318.435 301.955 316.844 300.864 315.759C299.78 314.675 298.269 314.125 296.347 314.125C292.084 314.125 288.89 316.634 286.758 321.653C284.626 326.671 283.564 333.027 283.564 340.721C283.564 349.333 284.879 356.383 287.509 361.864C290.14 367.345 293.926 370.078 298.855 370.078C302.114 370.078 305.062 368.552 307.693 365.501C310.323 362.449 312.144 357.287 313.149 350.005H316.155C315.483 359.962 313.185 367.381 309.261 372.276C305.33 377.171 300.358 379.616 294.338 379.616C289.576 379.616 285.435 378.169 281.923 375.284L281.938 375.299Z" fill="black"/>
<path d="M337.993 370.975C338.413 372.313 339.244 373.253 340.501 373.795C341.758 374.338 343.681 374.612 346.268 374.612V377.62H316.43V374.612C319.017 374.612 320.946 374.345 322.196 373.795C323.454 373.253 324.285 372.313 324.704 370.975C325.123 369.637 325.333 367.548 325.333 364.706V326.064C325.333 322.723 325.21 320.46 324.957 319.289C324.704 318.117 323.952 317.532 322.702 317.532C321.784 317.532 320.195 317.994 317.94 318.913L316.813 316.028L335.24 308.623L337.372 310.503V364.699C337.372 367.541 337.582 369.637 338.001 370.968L337.993 370.975ZM324.516 294.386C322.97 292.925 322.196 291.103 322.196 288.926C322.196 286.75 322.97 284.812 324.516 283.344C326.063 281.883 328.006 281.146 330.348 281.146C332.689 281.146 334.611 281.876 336.115 283.344C337.618 284.812 338.369 286.67 338.369 288.926C338.369 291.182 337.618 292.925 336.115 294.386C334.611 295.853 332.689 296.584 330.348 296.584C328.006 296.584 326.063 295.853 324.516 294.386Z" fill="black"/>
<path d="M422.643 373.794C421.429 373.251 420.613 372.311 420.201 370.974C419.782 369.636 419.572 367.546 419.572 364.704V276.003L417.693 274.246L398.637 283.53L399.894 286.293C402.402 285.042 404.201 284.412 405.285 284.412C406.29 284.412 406.897 284.933 407.106 285.982C407.316 287.03 407.417 289.098 407.417 292.193V364.704C407.417 367.546 407.208 369.643 406.788 370.974C406.564 371.697 406.218 372.297 405.748 372.789C405.748 372.789 405.09 373.418 404.281 373.794C404.201 373.83 404.122 373.866 404.05 373.895C404.05 373.895 403.818 373.989 403.58 374.047C398.124 375.5 395.154 374.256 395.154 374.256C394.503 374.011 394.084 373.729 393.896 373.591C393.896 373.591 393.08 373.128 392.632 372.225C392.09 371.14 391.815 369.13 391.815 366.201V329.193C391.815 322.505 390.081 317.422 386.612 313.951C383.143 310.48 378.316 308.744 372.13 308.744C368.033 308.744 364.333 309.518 361.038 311.066C357.735 312.613 355.148 314.681 353.262 317.277C351.383 319.873 350.444 322.715 350.444 325.809C350.444 328.152 351.051 330.032 352.265 331.457C353.479 332.881 355.17 333.59 357.345 333.59C359.267 333.59 360.77 333.069 361.862 332.021C362.946 330.972 363.495 329.577 363.495 327.82C363.495 326.648 363.198 325.397 362.62 324.052C362.534 323.886 362.367 323.423 362.122 322.671C361.869 321.919 361.746 321.167 361.746 320.415C361.746 318.405 362.519 316.8 364.066 315.585C365.612 314.37 367.643 313.763 370.143 313.763C373.323 313.763 375.722 314.891 377.355 317.154C378.988 319.41 379.798 323.134 379.798 328.319V335.593L377.167 336.721C370.902 339.563 365.778 342.115 361.811 344.371C357.836 346.627 354.433 349.454 351.593 352.838C348.753 356.23 347.329 360.221 347.329 364.82C347.329 369.086 348.565 372.622 351.029 375.421C353.493 378.219 356.897 379.622 361.247 379.622C365.598 379.622 369.623 377.988 372.846 374.726C376.062 371.465 378.381 366.866 379.805 360.93V363.186C379.805 370.576 381.532 375.471 384.993 377.879C387.862 379.875 391.801 379.911 391.801 379.911C392.119 379.911 392.567 379.918 393.087 379.911C394.901 379.86 396.281 379.651 396.968 379.535C399.475 379.13 399.894 378.978 402.243 378.58C402.243 378.58 406.167 377.915 409.361 377.72C410.004 377.684 410.626 377.669 410.626 377.669C411.023 377.662 411.334 377.662 411.558 377.662C415.532 377.662 423.821 377.756 424.833 377.763C425.548 377.763 426.799 377.778 428.381 377.778V374.611C425.787 374.611 423.886 374.343 422.679 373.794H422.643ZM379.769 354.538C378.179 359.722 376.177 363.613 373.749 366.208C371.321 368.804 368.777 370.099 366.103 370.099C363.928 370.099 362.259 369.325 361.088 367.778C359.918 366.23 359.332 364.119 359.332 361.443C359.332 356.758 361.11 352.81 364.658 349.585C368.206 346.367 373.243 343.084 379.769 339.736V354.538Z" fill="black"/>
<path d="M189.545 429.533C189.58 430.053 189.666 430.478 189.805 430.807C189.961 431.119 190.16 431.362 190.403 431.535C190.663 431.708 190.949 431.83 191.261 431.899C191.59 431.951 191.937 431.977 192.301 431.977C192.665 431.977 193.012 431.942 193.341 431.873C193.67 431.804 193.956 431.691 194.199 431.535C194.442 431.379 194.632 431.18 194.771 430.937C194.91 430.677 194.979 430.356 194.979 429.975C194.979 429.576 194.892 429.264 194.719 429.039C194.546 428.814 194.303 428.632 193.991 428.493C193.679 428.354 193.306 428.242 192.873 428.155C192.44 428.051 191.972 427.93 191.469 427.791C190.966 427.67 190.455 427.531 189.935 427.375C189.415 427.219 188.938 427.011 188.505 426.751C188.072 426.474 187.716 426.118 187.439 425.685C187.179 425.252 187.049 424.688 187.049 423.995C187.049 423.232 187.205 422.591 187.517 422.071C187.846 421.551 188.262 421.126 188.765 420.797C189.285 420.468 189.848 420.234 190.455 420.095C191.079 419.956 191.686 419.887 192.275 419.887C192.916 419.887 193.54 419.948 194.147 420.069C194.754 420.19 195.3 420.416 195.785 420.745C196.27 421.057 196.678 421.499 197.007 422.071C197.336 422.626 197.544 423.345 197.631 424.229H194.615C194.355 422.894 193.54 422.227 192.171 422.227C191.547 422.227 191.027 422.34 190.611 422.565C190.195 422.773 189.987 423.172 189.987 423.761C189.987 424.142 190.091 424.428 190.299 424.619C190.507 424.792 190.828 424.948 191.261 425.087C191.694 425.226 192.24 425.382 192.899 425.555C193.558 425.711 194.329 425.954 195.213 426.283C196.218 426.612 196.929 427.063 197.345 427.635C197.778 428.207 197.995 428.883 197.995 429.663C197.995 430.478 197.822 431.18 197.475 431.769C197.146 432.341 196.704 432.818 196.149 433.199C195.594 433.598 194.953 433.884 194.225 434.057C193.514 434.248 192.778 434.343 192.015 434.343C191.426 434.343 190.819 434.265 190.195 434.109C189.571 433.953 188.99 433.684 188.453 433.303C187.933 432.939 187.491 432.454 187.127 431.847C186.78 431.223 186.581 430.452 186.529 429.533H189.545ZM211.407 433.927H208.625L208.677 432.705C208.331 433.156 207.854 433.537 207.247 433.849C206.641 434.178 205.887 434.343 204.985 434.343C203.408 434.343 202.221 433.892 201.423 432.991C200.643 432.09 200.253 430.824 200.253 429.195V420.303H203.139V428.545C203.139 429.186 203.183 429.732 203.269 430.183C203.356 430.616 203.495 430.972 203.685 431.249C203.876 431.509 204.136 431.7 204.465 431.821C204.795 431.942 205.193 432.003 205.661 432.003C206.025 432.003 206.389 431.925 206.753 431.769C207.117 431.613 207.438 431.37 207.715 431.041C208.01 430.712 208.244 430.296 208.417 429.793C208.591 429.273 208.677 428.658 208.677 427.947V420.303H211.407V433.927ZM221.743 431.561C222.367 431.11 222.792 430.469 223.017 429.637C223.242 428.805 223.355 427.921 223.355 426.985C223.355 426.344 223.294 425.737 223.173 425.165C223.069 424.593 222.887 424.099 222.627 423.683C222.367 423.25 222.029 422.912 221.613 422.669C221.214 422.409 220.72 422.279 220.131 422.279C219.524 422.279 219.004 422.4 218.571 422.643C218.138 422.886 217.782 423.215 217.505 423.631C217.228 424.047 217.028 424.541 216.907 425.113C216.786 425.668 216.725 426.266 216.725 426.907C216.725 427.635 216.786 428.311 216.907 428.935C217.028 429.559 217.219 430.096 217.479 430.547C217.756 430.998 218.12 431.353 218.571 431.613C219.022 431.873 219.576 432.003 220.235 432.003C220.842 432.003 221.344 431.856 221.743 431.561ZM216.855 438.971H214.021V420.329H216.881L216.855 421.239C217.323 420.84 217.869 420.528 218.493 420.303C219.134 420.06 219.776 419.939 220.417 419.939C221.492 419.939 222.402 420.147 223.147 420.563C223.91 420.962 224.525 421.499 224.993 422.175C225.478 422.834 225.825 423.596 226.033 424.463C226.258 425.33 226.371 426.214 226.371 427.115C226.371 428.034 226.258 428.935 226.033 429.819C225.808 430.686 225.452 431.457 224.967 432.133C224.482 432.809 223.858 433.355 223.095 433.771C222.35 434.187 221.448 434.395 220.391 434.395C219.646 434.395 218.978 434.265 218.389 434.005C217.8 433.745 217.288 433.381 216.855 432.913V438.971ZM237.201 425.607C237.131 424.619 236.828 423.813 236.291 423.189C235.753 422.548 234.939 422.227 233.847 422.227C233.327 422.227 232.867 422.322 232.469 422.513C232.087 422.704 231.758 422.955 231.481 423.267C231.203 423.579 230.987 423.943 230.831 424.359C230.692 424.758 230.605 425.174 230.571 425.607H237.201ZM240.191 428.909C239.705 430.833 238.908 432.22 237.799 433.069C236.707 433.918 235.32 434.343 233.639 434.343C232.599 434.343 231.689 434.135 230.909 433.719C230.129 433.32 229.487 432.783 228.985 432.107C228.482 431.431 228.101 430.66 227.841 429.793C227.598 428.926 227.477 428.034 227.477 427.115C227.477 426.196 227.607 425.304 227.867 424.437C228.127 423.57 228.517 422.799 229.037 422.123C229.574 421.447 230.233 420.91 231.013 420.511C231.81 420.095 232.729 419.887 233.769 419.887C234.878 419.887 235.84 420.078 236.655 420.459C237.469 420.84 238.137 421.36 238.657 422.019C239.177 422.678 239.558 423.458 239.801 424.359C240.061 425.243 240.191 426.188 240.191 427.193C240.191 427.678 239.983 427.921 239.567 427.921H230.493C230.493 428.476 230.562 429.004 230.701 429.507C230.839 429.992 231.047 430.417 231.325 430.781C231.619 431.145 231.992 431.44 232.443 431.665C232.893 431.873 233.439 431.977 234.081 431.977C235.589 431.977 236.603 430.954 237.123 428.909H240.191ZM245.144 433.927H242.31V420.303H245.196L245.144 421.759C245.3 421.551 245.474 421.343 245.664 421.135C245.855 420.91 246.063 420.71 246.288 420.537C246.531 420.346 246.791 420.19 247.068 420.069C247.363 419.948 247.692 419.887 248.056 419.887C248.299 419.887 248.559 419.904 248.836 419.939C249.131 419.956 249.434 420.026 249.746 420.147V422.929C249.4 422.773 249.096 422.678 248.836 422.643C248.594 422.591 248.368 422.565 248.16 422.565C247.762 422.565 247.38 422.626 247.016 422.747C246.67 422.868 246.349 423.076 246.054 423.371C245.777 423.666 245.552 424.056 245.378 424.541C245.222 425.009 245.144 425.598 245.144 426.309V433.927ZM252.504 429.533C252.538 430.053 252.625 430.478 252.764 430.807C252.92 431.119 253.119 431.362 253.362 431.535C253.622 431.708 253.908 431.83 254.22 431.899C254.549 431.951 254.896 431.977 255.26 431.977C255.624 431.977 255.97 431.942 256.3 431.873C256.629 431.804 256.915 431.691 257.158 431.535C257.4 431.379 257.591 431.18 257.73 430.937C257.868 430.677 257.938 430.356 257.938 429.975C257.938 429.576 257.851 429.264 257.678 429.039C257.504 428.814 257.262 428.632 256.95 428.493C256.638 428.354 256.265 428.242 255.832 428.155C255.398 428.051 254.93 427.93 254.428 427.791C253.925 427.67 253.414 427.531 252.894 427.375C252.374 427.219 251.897 427.011 251.464 426.751C251.03 426.474 250.675 426.118 250.398 425.685C250.138 425.252 250.008 424.688 250.008 423.995C250.008 423.232 250.164 422.591 250.476 422.071C250.805 421.551 251.221 421.126 251.724 420.797C252.244 420.468 252.807 420.234 253.414 420.095C254.038 419.956 254.644 419.887 255.234 419.887C255.875 419.887 256.499 419.948 257.106 420.069C257.712 420.19 258.258 420.416 258.744 420.745C259.229 421.057 259.636 421.499 259.966 422.071C260.295 422.626 260.503 423.345 260.59 424.229H257.574C257.314 422.894 256.499 422.227 255.13 422.227C254.506 422.227 253.986 422.34 253.57 422.565C253.154 422.773 252.946 423.172 252.946 423.761C252.946 424.142 253.05 424.428 253.258 424.619C253.466 424.792 253.786 424.948 254.22 425.087C254.653 425.226 255.199 425.382 255.858 425.555C256.516 425.711 257.288 425.954 258.172 426.283C259.177 426.612 259.888 427.063 260.304 427.635C260.737 428.207 260.954 428.883 260.954 429.663C260.954 430.478 260.78 431.18 260.434 431.769C260.104 432.341 259.662 432.818 259.108 433.199C258.553 433.598 257.912 433.884 257.184 434.057C256.473 434.248 255.736 434.343 254.974 434.343C254.384 434.343 253.778 434.265 253.154 434.109C252.53 433.953 251.949 433.684 251.412 433.303C250.892 432.939 250.45 432.454 250.086 431.847C249.739 431.223 249.54 430.452 249.488 429.533H252.504ZM270.18 431.561C270.839 431.11 271.324 430.495 271.636 429.715C271.965 428.918 272.13 428.051 272.13 427.115C272.13 426.526 272.061 425.945 271.922 425.373C271.783 424.784 271.567 424.255 271.272 423.787C270.995 423.319 270.631 422.946 270.18 422.669C269.729 422.374 269.192 422.227 268.568 422.227C267.944 422.227 267.407 422.374 266.956 422.669C266.505 422.946 266.133 423.319 265.838 423.787C265.561 424.255 265.353 424.784 265.214 425.373C265.075 425.945 265.006 426.526 265.006 427.115C265.006 427.722 265.075 428.32 265.214 428.909C265.353 429.481 265.561 429.992 265.838 430.443C266.133 430.894 266.505 431.266 266.956 431.561C267.407 431.838 267.944 431.977 268.568 431.977C269.209 431.977 269.747 431.838 270.18 431.561ZM273.508 432.081C272.971 432.757 272.286 433.303 271.454 433.719C270.639 434.135 269.677 434.343 268.568 434.343C267.441 434.343 266.462 434.135 265.63 433.719C264.815 433.303 264.139 432.757 263.602 432.081C263.082 431.388 262.692 430.608 262.432 429.741C262.172 428.874 262.042 427.999 262.042 427.115C262.042 426.231 262.172 425.356 262.432 424.489C262.692 423.622 263.082 422.851 263.602 422.175C264.139 421.482 264.815 420.927 265.63 420.511C266.462 420.095 267.441 419.887 268.568 419.887C269.677 419.887 270.639 420.095 271.454 420.511C272.286 420.927 272.971 421.482 273.508 422.175C274.063 422.851 274.47 423.622 274.73 424.489C274.99 425.356 275.12 426.231 275.12 427.115C275.12 427.999 274.99 428.874 274.73 429.741C274.47 430.608 274.063 431.388 273.508 432.081ZM287.856 428.909C287.596 430.729 286.937 432.09 285.88 432.991C284.822 433.892 283.54 434.343 282.032 434.343C280.992 434.343 280.082 434.135 279.302 433.719C278.539 433.32 277.898 432.783 277.378 432.107C276.875 431.431 276.494 430.66 276.234 429.793C275.991 428.926 275.87 428.034 275.87 427.115C275.87 426.196 276 425.304 276.26 424.437C276.537 423.57 276.944 422.799 277.482 422.123C278.019 421.447 278.678 420.91 279.458 420.511C280.238 420.095 281.148 419.887 282.188 419.887C282.916 419.887 283.609 420.008 284.268 420.251C284.926 420.476 285.507 420.823 286.01 421.291C286.53 421.742 286.946 422.305 287.258 422.981C287.57 423.64 287.752 424.394 287.804 425.243H284.788C284.718 424.099 284.45 423.31 283.982 422.877C283.531 422.444 282.864 422.227 281.98 422.227C281.512 422.227 281.087 422.348 280.706 422.591C280.324 422.816 279.995 423.146 279.718 423.579C279.458 424.012 279.25 424.532 279.094 425.139C278.955 425.728 278.886 426.387 278.886 427.115C278.886 427.826 278.955 428.484 279.094 429.091C279.25 429.68 279.458 430.192 279.718 430.625C279.995 431.058 280.316 431.396 280.68 431.639C281.061 431.864 281.486 431.977 281.954 431.977C282.786 431.977 283.436 431.76 283.904 431.327C284.372 430.876 284.666 430.07 284.788 428.909H287.856ZM292.298 433.875H289.464V419.965H292.298V433.875ZM292.402 417.079H289.36V414.193H292.402V417.079ZM298.991 431.977C299.65 431.977 300.204 431.856 300.655 431.613C301.314 431.214 301.738 430.66 301.929 429.949C302.137 429.256 302.241 428.458 302.241 427.557C301.877 427.557 301.383 427.557 300.759 427.557C300.152 427.54 299.554 427.6 298.965 427.739C298.393 427.878 297.89 428.12 297.457 428.467C297.041 428.814 296.833 429.342 296.833 430.053C296.833 430.816 297.006 431.327 297.353 431.587C297.717 431.847 298.263 431.977 298.991 431.977ZM304.919 431.613C304.919 431.908 304.928 432.254 304.945 432.653C304.98 433.052 305.04 433.476 305.127 433.927H302.293L302.267 432.627C302.163 432.818 301.998 433.008 301.773 433.199C301.565 433.407 301.305 433.598 300.993 433.771C300.681 433.944 300.326 434.083 299.927 434.187C299.546 434.291 299.138 434.343 298.705 434.343C297.024 434.343 295.793 433.97 295.013 433.225C294.233 432.48 293.843 431.405 293.843 430.001C293.843 429.048 294.103 428.216 294.623 427.505C295.143 426.777 295.828 426.24 296.677 425.893C297.145 425.685 297.639 425.538 298.159 425.451C298.679 425.347 299.19 425.278 299.693 425.243C300.196 425.208 300.664 425.2 301.097 425.217C301.53 425.217 301.886 425.217 302.163 425.217V424.619C302.094 423.666 301.86 423.033 301.461 422.721C301.062 422.392 300.464 422.227 299.667 422.227C299.32 422.227 299.008 422.262 298.731 422.331C298.471 422.383 298.237 422.496 298.029 422.669C297.838 422.825 297.682 423.059 297.561 423.371C297.44 423.666 297.353 424.056 297.301 424.541H294.285C294.32 423.709 294.502 423.007 294.831 422.435C295.16 421.846 295.576 421.36 296.079 420.979C296.582 420.598 297.145 420.32 297.769 420.147C298.41 419.974 299.06 419.887 299.719 419.887C300.499 419.887 301.21 419.991 301.851 420.199C302.492 420.39 303.038 420.693 303.489 421.109C303.957 421.508 304.312 422.01 304.555 422.617C304.815 423.206 304.936 423.9 304.919 424.697V431.613ZM310.453 433.875H307.619V413.959H310.453V433.875ZM324.816 433.745H313.064C312.787 433.745 312.596 433.693 312.492 433.589C312.406 433.502 312.362 433.32 312.362 433.043V431.353C312.778 430.954 313.29 430.46 313.896 429.871C314.503 429.264 315.136 428.614 315.794 427.921C316.47 427.21 317.138 426.474 317.796 425.711C318.472 424.931 319.07 424.168 319.59 423.423C320.128 422.678 320.561 421.976 320.89 421.317C321.22 420.641 321.384 420.043 321.384 419.523C321.402 418.483 321.142 417.729 320.604 417.261C320.067 416.793 319.348 416.559 318.446 416.559C317.562 416.559 316.852 416.871 316.314 417.495C315.794 418.102 315.534 419.012 315.534 420.225H312.518C312.518 419.272 312.674 418.422 312.986 417.677C313.298 416.914 313.714 416.273 314.234 415.753C314.772 415.216 315.396 414.808 316.106 414.531C316.834 414.236 317.614 414.089 318.446 414.089C319.278 414.089 320.05 414.21 320.76 414.453C321.488 414.678 322.121 415.016 322.658 415.467C323.196 415.9 323.62 416.446 323.932 417.105C324.244 417.764 324.4 418.509 324.4 419.341C324.4 420.104 324.244 420.875 323.932 421.655C323.62 422.435 323.213 423.206 322.71 423.969C322.208 424.732 321.644 425.477 321.02 426.205C320.414 426.916 319.798 427.592 319.174 428.233C318.55 428.857 317.961 429.429 317.406 429.949C316.869 430.469 316.427 430.911 316.08 431.275H324.816V433.745ZM328.963 427.973C329.101 429.29 329.465 430.244 330.055 430.833C330.644 431.422 331.493 431.717 332.603 431.717C333.747 431.717 334.631 431.431 335.255 430.859C335.879 430.287 336.191 429.429 336.191 428.285C336.191 427.696 336.087 427.202 335.879 426.803C335.688 426.387 335.419 426.049 335.073 425.789C334.726 425.529 334.327 425.338 333.877 425.217C333.426 425.096 332.958 425.026 332.473 425.009H331.485C331.207 425.009 331.025 424.966 330.939 424.879C330.852 424.792 330.809 424.61 330.809 424.333V423.137C330.809 422.86 330.852 422.678 330.939 422.591C331.025 422.504 331.207 422.461 331.485 422.461H332.291C332.776 422.444 333.227 422.383 333.643 422.279C334.076 422.175 334.449 422.01 334.761 421.785C335.073 421.542 335.315 421.239 335.489 420.875C335.679 420.511 335.775 420.052 335.775 419.497C335.775 418.509 335.48 417.772 334.891 417.287C334.319 416.784 333.539 416.533 332.551 416.533C331.545 416.533 330.774 416.802 330.237 417.339C329.699 417.859 329.37 418.717 329.249 419.913H326.311C326.328 418.994 326.493 418.171 326.805 417.443C327.117 416.715 327.55 416.1 328.105 415.597C328.659 415.094 329.318 414.713 330.081 414.453C330.843 414.193 331.684 414.063 332.603 414.063C333.4 414.063 334.163 414.176 334.891 414.401C335.636 414.609 336.295 414.938 336.867 415.389C337.439 415.822 337.889 416.377 338.219 417.053C338.565 417.729 338.739 418.518 338.739 419.419C338.739 420.563 338.444 421.516 337.855 422.279C337.265 423.024 336.399 423.518 335.255 423.761C336.572 423.986 337.543 424.506 338.167 425.321C338.808 426.136 339.129 427.193 339.129 428.493C339.129 429.481 338.938 430.33 338.557 431.041C338.175 431.752 337.673 432.341 337.049 432.809C336.442 433.277 335.74 433.624 334.943 433.849C334.145 434.074 333.331 434.187 332.499 434.187C331.545 434.187 330.679 434.048 329.899 433.771C329.119 433.494 328.443 433.086 327.871 432.549C327.316 432.012 326.883 431.362 326.571 430.599C326.259 429.819 326.094 428.944 326.077 427.973H328.963ZM345.147 434.629H341.637V431.327H345.147V434.629ZM359.702 428.909C359.442 430.729 358.783 432.09 357.726 432.991C356.669 433.892 355.386 434.343 353.878 434.343C352.838 434.343 351.928 434.135 351.148 433.719C350.385 433.32 349.744 432.783 349.224 432.107C348.721 431.431 348.34 430.66 348.08 429.793C347.837 428.926 347.716 428.034 347.716 427.115C347.716 426.196 347.846 425.304 348.106 424.437C348.383 423.57 348.791 422.799 349.328 422.123C349.865 421.447 350.524 420.91 351.304 420.511C352.084 420.095 352.994 419.887 354.034 419.887C354.762 419.887 355.455 420.008 356.114 420.251C356.773 420.476 357.353 420.823 357.856 421.291C358.376 421.742 358.792 422.305 359.104 422.981C359.416 423.64 359.598 424.394 359.65 425.243H356.634C356.565 424.099 356.296 423.31 355.828 422.877C355.377 422.444 354.71 422.227 353.826 422.227C353.358 422.227 352.933 422.348 352.552 422.591C352.171 422.816 351.841 423.146 351.564 423.579C351.304 424.012 351.096 424.532 350.94 425.139C350.801 425.728 350.732 426.387 350.732 427.115C350.732 427.826 350.801 428.484 350.94 429.091C351.096 429.68 351.304 430.192 351.564 430.625C351.841 431.058 352.162 431.396 352.526 431.639C352.907 431.864 353.332 431.977 353.8 431.977C354.632 431.977 355.282 431.76 355.75 431.327C356.218 430.876 356.513 430.07 356.634 428.909H359.702ZM367.951 431.561C368.61 431.11 369.095 430.495 369.407 429.715C369.737 428.918 369.901 428.051 369.901 427.115C369.901 426.526 369.832 425.945 369.693 425.373C369.555 424.784 369.338 424.255 369.043 423.787C368.766 423.319 368.402 422.946 367.951 422.669C367.501 422.374 366.963 422.227 366.339 422.227C365.715 422.227 365.178 422.374 364.727 422.669C364.277 422.946 363.904 423.319 363.609 423.787C363.332 424.255 363.124 424.784 362.985 425.373C362.847 425.945 362.777 426.526 362.777 427.115C362.777 427.722 362.847 428.32 362.985 428.909C363.124 429.481 363.332 429.992 363.609 430.443C363.904 430.894 364.277 431.266 364.727 431.561C365.178 431.838 365.715 431.977 366.339 431.977C366.981 431.977 367.518 431.838 367.951 431.561ZM371.279 432.081C370.742 432.757 370.057 433.303 369.225 433.719C368.411 434.135 367.449 434.343 366.339 434.343C365.213 434.343 364.233 434.135 363.401 433.719C362.587 433.303 361.911 432.757 361.373 432.081C360.853 431.388 360.463 430.608 360.203 429.741C359.943 428.874 359.813 427.999 359.813 427.115C359.813 426.231 359.943 425.356 360.203 424.489C360.463 423.622 360.853 422.851 361.373 422.175C361.911 421.482 362.587 420.927 363.401 420.511C364.233 420.095 365.213 419.887 366.339 419.887C367.449 419.887 368.411 420.095 369.225 420.511C370.057 420.927 370.742 421.482 371.279 422.175C371.834 422.851 372.241 423.622 372.501 424.489C372.761 425.356 372.891 426.231 372.891 427.115C372.891 427.999 372.761 428.874 372.501 429.741C372.241 430.608 371.834 431.388 371.279 432.081ZM393.557 433.927H390.723V425.685C390.723 425.044 390.679 424.506 390.593 424.073C390.523 423.622 390.393 423.258 390.203 422.981C390.029 422.704 389.787 422.513 389.475 422.409C389.163 422.288 388.781 422.227 388.331 422.227C387.689 422.227 387.091 422.47 386.537 422.955C385.999 423.44 385.661 424.22 385.523 425.295V433.927H382.793V425.685C382.793 424.402 382.611 423.51 382.247 423.007C381.9 422.487 381.276 422.227 380.375 422.227C380.011 422.227 379.655 422.305 379.309 422.461C378.979 422.617 378.676 422.86 378.399 423.189C378.121 423.518 377.896 423.943 377.723 424.463C377.567 424.966 377.489 425.572 377.489 426.283V433.927H374.733V420.303H377.541V421.499C378.303 420.424 379.456 419.887 380.999 419.887C381.935 419.887 382.715 420.086 383.339 420.485C383.963 420.884 384.431 421.456 384.743 422.201C385.193 421.456 385.783 420.884 386.511 420.485C387.239 420.086 388.071 419.887 389.007 419.887C390.532 419.887 391.667 420.338 392.413 421.239C393.175 422.14 393.557 423.406 393.557 425.035V433.927Z" fill="black"/>
<path d="M185.827 438.399H396.105V439.049H185.827V438.399Z" fill="black"/>
<rect x="185.828" y="438.236" width="210.855" height="2.32324" fill="black"/>
<defs>
<linearGradient id="paint0_linear_454_7545" x1="268.815" y1="1146.41" x2="313.784" y2="1146.41" gradientUnits="userSpaceOnUse">
<stop stop-color="#E3E3E3"/>
<stop offset="0.22" stop-color="white"/>
<stop offset="0.61" stop-color="#F6F6F6"/>
<stop offset="1" stop-color="#999999"/>
</linearGradient>
<linearGradient id="paint1_linear_454_7545" x1="278.092" y1="1618.75" x2="322.073" y2="1618.75" gradientUnits="userSpaceOnUse">
<stop stop-color="#DFDFDF"/>
<stop offset="0.22" stop-color="white"/>
<stop offset="0.61" stop-color="#F2F2F2"/>
<stop offset="1" stop-color="#959595"/>
</linearGradient>
<linearGradient id="paint2_linear_454_7545" x1="277.592" y1="632.514" x2="321.504" y2="632.514" gradientUnits="userSpaceOnUse">
<stop stop-color="#B3B3B3"/>
<stop offset="1" stop-color="#959595"/>
</linearGradient>
</defs>
</svg>
